<mxfile host="Electron" modified="2023-09-30T05:54:13.574Z" agent="Mozilla/5.0 (Windows NT 10.0; Win64; x64) AppleWebKit/537.36 (KHTML, like Gecko) draw.io/22.0.0 Chrome/114.0.5735.289 Electron/25.8.3 Safari/537.36" etag="-9SpkWdvYoXe3RupEpMC" version="22.0.0" type="device">
  <diagram name="Page-1" id="iDwjewoxUZdUbSj5ovD3">
    <mxGraphModel dx="1418" dy="868" grid="1" gridSize="10" guides="1" tooltips="1" connect="1" arrows="1" fold="1" page="1" pageScale="1" pageWidth="850" pageHeight="1100" math="0" shadow="0">
      <root>
        <mxCell id="0" />
        <mxCell id="1" parent="0" />
        <mxCell id="Pp3IulloARQS01nqF-D--4" value="" style="group" parent="1" vertex="1" connectable="0">
          <mxGeometry x="263" y="290" width="323.06999999999994" height="520" as="geometry" />
        </mxCell>
        <mxCell id="IjgYTrY8oQ0kEiCpzaL8-23" value="" style="shape=xor;whiteSpace=wrap;html=1;rotation=79;container=0;strokeWidth=3;" parent="Pp3IulloARQS01nqF-D--4" vertex="1">
          <mxGeometry x="225" y="333.21000000000004" width="30" height="51.27" as="geometry" />
        </mxCell>
        <mxCell id="IjgYTrY8oQ0kEiCpzaL8-1" value="" style="shape=image;aspect=fixed;image=data:image/png,iVBORw0KGgoAAAANSUhEUgAAASsAAAHYCAYAAAAVos4DAAAAAXNSR0IArs4c6QAAIABJREFUeF7sXQd8FNX2/mb7bhJKCE0QsaDYRUWwPbE/9f9UVHwq2AUFFBUVe8denoKIqCiKvStYsKAiShVUsICCiCA9hLTtO//fd2ZvGGMowQRYOeMPk+zOzN45995vT/nOORb0UAmoBFQCOSABKwfGqENUCagEVAJQsNJFoBJQCeSEBBSscmKadJAqAZWAgpWuAZWASiAnJKBglRPTpINUCagEFKx0DagEVAI5IQEFq5yYJh2kSkAloGCla0AloBLICQkoWOXENOkgVQIqAQUrXQMqAZVATkhAwSonpkkHqRJQCShY6RpQCagEckICClY5MU06SJWASkDBSteASkAlkBMSULDKiWnSQaoEVAIKVroGVAIqgZyQgIJVTkyTDlIloBJQsNI1oBJQCeSEBBSscmKadJAqAZWAgpWuAZWASiAnJKBglRPTpINUCagEFKx0DagEVAI5IQEFq5yYJh2kSkAloGCla0AloBLICQkoWOXENOkgVQIqAQUrXQMqAZVATkhAwSonpkkHqRJQCShY6RpQCagEckICClY5MU06SJWASkDBSteASkAlkBMSULDKiWnSQaoEVAIKVroGVAIqgZyQgIJVTkyTDlIloBJQsNI1oBJQCeSEBBSscmKadJAqAZWAgpWuAZWASiAnJKBglRPTpINUCagEFKx0DagEVAI5IQEFq5yYJh2kSkAloGCla0AloBLICQkoWOXENOkgVQIqAQUrXQMqAZVATkhAwSonpkkHqRJQCShY6RpQCagEckICClY5MU06SJWASkDBSteASkAlkBMSULDKiWnSQaoEVAIKVroGVAIqgZyQgIJVTkyTDlIloBJQsNI1oBJQCeSEBBSscmKadJAqAZWAgpWuAZWASiAnJKBglRPTpINUCagEFKx0DagEVAI5IQEFq5yYJh2kSkAloGCla0AloBLICQkoWOXENOkgVQIqAQUrXQMqAZVATkhAwSonpkkHqRJQCShY6RpQCagEckICClY5MU06SJWASkDBSteASkAlkBMSULDKiWnSQaoEVAIKVroGVAIqgZyQgIJVTkyTDlIloBJQsNI1oBJQCeSEBBSscmKadJAqAZWAgpWuAZWASiAnJKBglRPTpINUCagEFKx0DagEVAI5IQEFq5yYJh2kSkAloGCla0AloBLICQkoWOXENOkgVQIqAQUrXQMqAZVATkhAwSonpkkHqRJQCShY6RpQCagEckICClY5MU06SJWASkDBSteASkAlkBMSULDKiWnSQaoEVAIKVroGVAIqgZyQgIJVTkyTDlIloBJQsNI1oBJQCeSEBBSscmKadJAqAZWAgpWuAZWASiAnJKBglRPTpINUCagEFKx0DagEVAI5IQEFq5yYJh2kSkAloGCla0AloBLICQkoWOXENOkgVQIqAQUrXQMqAZVATkhAwSonpkkHqRJQCShY6RpQCagEckICClY5MU06SJWASkDBSteASkAlkBMSULDKiWnSQaoEVAIKVroGVAIqgZyQgIJVTkyTDlIloBJQsNI1oBJQCeSEBBSscmKadJAqAZWAgpWuAZWASiAnJKBglRPTpINUCagEFKx0DagEVAI5IQEFq5yYJh2kSkAloGCla0AloBLICQkoWOXENOkgVQIqAQUrXQMqAZVATkhAwSonpkkHqRJQCShY6RpQCagEckICClY5MU06SJWASkDBSteASkAlkBMSULDKiWnSQaoEVAIKVroGVAIqgZyQgIJVTkyTDlIloBJQsNI1oBJQCeSEBBSscmKadJAqAZWAgpWuAZWASiAnJKBglRPTpINUCagEFKx0DagEVAI5IQEFq5yYJh2kSkAloGCla0AloBLICQkoWOXENOkgVQIqAQUrXQMqAZVATkhAwSonpkkHqRJQCShY6RpQCagEckICClY5MU06SJWASkDBSteASkAlkBMSULDKiWnSQaoEVAIKVroGVAIqgZyQgIJVTkyTDlIloBJQsNI1oBJQCeSEBBSscmKadJAqAZWAgpWuAZWASiAnJKBglRPTpINUCagEFKx0DagEVAI5IQEFq5yYJh2kSkAloGCla+BPEojFYnYoFPrTukgkk3bA75fXEomEHQgEqt6v/veaxJlMJm1/9h4qcpXAhkhAwWpDpJaD18TjcZvDDgaDf5lzA1AVFRV2Xl6evL9y5Uq7cePGa10f5eXldn5+vq6hHFwPuThkXWi5OGt1OGaj8bg1pHHjxlELQjQalX/5+fmIRCLIy8tDw4YN5Sf/dmtYlZWVdiQSkfUUjUZtn88HalLu+xIwPR6PvF6Hj6C32kIkoIvmHz7RNZl1a3rkd9991/7oo4/w/PPPY9myZQQVJJNJhMNhAagmTZqgbdu2aN++Pfbbbz906NABrVu3RoMGDWQdEYxs24YxI9X0+4cvro38eApWG1ngm/rjCCAcg1u7WbZsmT106FDcddddokk1atQIlZWV9E/9abjUljKZjPwjkBUWFuLMM8/EPvvsI8C14447wrIsuc6YmzX5tNZmkm5q+ejnb74SULDafOemzkZGwODN3GabuTn9Ttdffz2GDx8OakUEoYKCAnTq1ElAa/78+QJgqVRKAGzx4sUoKSkRwOL5/BkKhbD77rvj//7v/3DkkUdihx12ENPR7ahXE7DOpnOLvZGC1RY09QSt8vJyxGIx0YC8Xi8++eQT9O7dG3yd5t4JJ5yAK6+8EnvssYeAEf8RpAhY8+bNw+TJk/Hzzz9j1qxZmD59OpYuXSoS5L3S6TSKiopw8skn4/DDDxdtq127drrGtqA1Vp+PqgupPqW7Gd17wYIF9pQpUzB+/HjMmTNHwIrO8u+++w7Tpk0T7WjbbbfFI488gkMPPVTepzZFhzjNOr7Pg78HAgEsWbIEH3zwASZMmIAvvviC0UOsWrVKQI0Ax+v33XdfXHrppWIm7rzzzlV+LXWyb0YLI4eGomCVQ5O1rqHW5NAuKSmx33//fbzyyit48803xcwjmBCIqA3xIBARQPiPwHLwwQdjl112EVNwm222EY3J+KnocOfvwWBQfvKa33//Hc899xw+//xzAT5qbjyokfHaf/3rX7j66qvlfnTS8yComejhup7L/f66Agbq1K+NNHPrXAWr3Jqv9RqtcWrTT/TUU0/hkksuEXCiH4nmHkGKzvGysjKhIBgfFF8n+BCQCEb7778/zjvvPBxxxBFo2bKlgBzfo6PdaFx8jefy4P1efvllvPDCC6LB8T1+zooVKwTYevXqhX79+gkAGn7W2vxp63pYUiTC4bCu4XUJ6h/yvk70P2Qiq0fdqGF89dVXOO2008REIyjR7CNQUMOhNmVoCYsWLcJvv/2GiooKOZe/06Qj2PA4++yzccyxx2C/jvuJqeg2B6k58T40DWn68R/v88QTT+Cdd97BxIkTRYuiP4w/d9ppJ9x22234z3/+s0GaFZ8rq9np2v2HrN31fQyd8PWV1GZ6njF7qEW52enz58+3b7jhBjH/CCQHHHAALrvsMhx22GECQkY74mMRbIw2NWPGDDEXJ02ahB9++EF8U/RT8fzjjz9ewI8mYosWLcivEpOP9+NnmPvS1CRgxeNxDBkyBORu0a9FzY6v8179+/fHueeeK5FHE4UkoPHfmkij1U08Nfk200VZT8NSsKonwW6s264JrD77/DP7pK4nobi4WPhPDz74II477jgBBmpPNM+MM5xaFwHJ+KKoHfG9MWPGiHZEAGMEkNoWj65du+Kiiy4S07BZs2ZyHcGOxFGCDw+CF01PAhNNT4LTyJEjxWdGwKLp2KpVK3Ts2FF8W/zMNm3aYK+99qIzHs2bN5dzCF6FhYV/YcYb+RpNi9fXRM3YWPOgn1P/ElCwqn8Zb9RP4OYlcBBkqAURiLbffns8++yzwjw3UT2ab/RREbz4O0GFB3+nRkSQINgQXH755RfhYX399ddYvny5UBZ4nHrqqUJTIODQcU5Q4vX8jKZNmwoo8eC9CTx0wpMWQXY8Qc2AnwE3Xst/fI/mIsdN/la7du3EfKU2t9VWWwko0ew1Gp0RMMfLQ9N5NuqS22gfpmC10URdfx/kNofMJn799deFXU6QaNy4MR5//HEcddRRAkDVaQgECB4EKQIANSQDYjTzqCXxH98fNWqUOM/JsyJtga8x2tejR48qIikd6uRbEbB4UGszmtdnn32GO+64Q8xMOuSpmfEeqWQSHq9XgI3j4ecaBj21Jj4HwZbOfpPmQ82On0Nz1EQ2s/4zWddqJtbfmtsUd1aw2hRSr6fPNEBF39Xrr79uU7PiJqeZRaC69957RVMhOJgIHgGB4MLNTiAjSDHSR8CgqWhMRBP1M3QFRhDpPP/444/Fx8Vrjj32WIkeEkCy1AQBLGpnPEpLSwVYOB6y5h999NE/pfQYoirHYgCS4MPrOWaO1Whf1Px22203Yc3zJ0msNB1NnqKCVT0tsk14WwWrTSj8+vhoo03MmjXLvuKKKzB69GjRXmh60Zyi74gaSufOneXjCVQEAAKF8T0RKAg+BBwCFs0yw88iYPA9akC8JgsKAlg0E8nRIuWBwEftiGabASueS1ORjnZqVQ8//DDIASMg8bNoNvJ1w7I38jFmJEGM9+LnEryMmclx089FsDTcMCZcN2/evMb1bbhaRlZuDUy1sfpYlXVzTwWrupHjJr+Lu0SLGcwHH3xgk0FOk420BYIAgYjgwxw+Osr33HNPAQ8CgPFjEWgIIAYcqA1Rw+Jh6Az83Z3UbF43zHdDizDXEFxofvLe/BxqdoZsSoAifeLXX38Vdj1/8m++zgABI5LMSTRkU36GiRwakirHQo2NBwMKJ554Ig455BDxe7Vv317WeWlpqe3WvNY1aesioK7ren2/biWgYFW38twkd6sJqFasWGFTK3rvvfdwzjnniAnGg5qJ2dgEIW5qlnuhGUUNjP4qA0IEKAIWXzN+LvcDGnAjSFDbMgDEcwy5NBulq4oM8j1qURyHySc0/CxeU/0g0P7444+YOXOm5CbOnTsXs2fPFvAyvjbei2M02iCBkc/AgzmKJ510Eg488EDsuuuuVc53QyhVrWqTLNkN+lAFqw0S2+Zz0drKDC9ZssT+9NNPMXDgQKEeGPONGgo3s9ns9PWQ5c6EZsOdIjgZv5NxXhstyZh/IGfUtYJ4T97baGEG9IzTnJ9Hzc4chixqEqbN+eancfZTGzO+MmpZU6dOFZNz4cKFojWSD0Y6Bo9stYcqs5YRR15Lbhj9aQSvPffcU0ZdE8hvPjOrI6kuAQWrf8iaMJoCwYubkxuYTmz6hAg2BB+TLkPTiVQAmkv0Y/Xs2VP4TQQao0HJ78HQX8DIaE1GbDyPGlUVgAFVjnrjqzLlZAzoGf6VAT/+dF9ffUqMuej2k5l7km1PPhifk9rXH3/8If4sAjOfhWPg9dT++PksXzNgwADRtho2bLjG9V+dZPsPWSY5/RgKVjk9fTU3cBg0aJBoU6bsC0GKWgw3LflL9OUcc8wxYgLyMPl+pnAeN7Vbm1oTqJjqCsa040/6kni4AckNggQZggmBpzpPyu0PM5/J19wgZz7TJGPz8/hcLFXDJGqWvCEtgpokgwoEUl5PbY+fTR8YQcyUwunYsWPVHlCA2rw3g4LV5j0/6zU6+l24YRnZu/POOyXFhWBA2gB9VYyakZN09NFH4/zzz8dBBx0kYGLSaAyRs7p2Y0DFaFPu9w2wmLxAnmO0HWo1NWlK/Dy+7o4OrusBjfm3pvMMlcF93wULFkgyNRnzNBP5rAQrwzHjNRwLTV4CO/1Z22yzje6FdU3GJn5fJ2gTT0BdffzcuXOFqkAKAR3lBBH6ceh4Zn0qpscw3Qa2jVg2Mmc4TGYMBhiML6u6dmXOc0f+qmtR7veM9mPAya2JubWt6jJwa1jua9znGT+Xe4wEI8PVolZJZ/x9992H0aNHobKiQt5za3Q8v7yiEtdccw0uvPBCSf/RlJ26WpF1fx8Fq7qXaZ3fsaZSKG7H+vjx4+3LL79cnM7UoBj2J/DQJ3XWWWcJt4rmkgEIY6KZ4nomCkcA4HXc1DVF5qqDFEGN5xmHuCkxUz2Fp84FspYbGhCD7UQDebz++mt48vEn8NVXXyIaJYUiIKCVsW2E8/KxdOkyoXHcdNNNwkFzl52pqYb8uhzzak7Wz4wrWNWPXOv0rjTzCCzcRKZXX1lZmV1QUGCxI80999wjVQ1o1tDs44b973//K9E9+qd4rNZkWKY4WuXLMeDk1q4Mi90NWNU1Jp5fk3Zj6Ax1KoBa3MyMyZJQpfPc4UgYSxctEtNwxIgRmDHzBwli5uVFEE8mUNS0uUQWmcZz8803C2GW9eeN1ubONXRzr9YFSkowrcXErcepClbrIaRNeYppPMpNwnG4mzAMHz7cvu6664Q0SXOPZh3BggXurrjySrRo3ryqhAvfNw50Qx+IswtNtjoCr6O5ZgCKfxszLluGuIoOYDSzmgrwERwMh8qUQN6Y8qvupJdnjnNMPlgeD2Z++x2GPzVczOX5vy9EIEi2vlc0TzrfTbMMcrKYmsSABNnxdMq7G7oaoHIDloJT/c60glX9yrde7k4AGzx4MB566KGqlBMCBzWBG2+8UepWMfpncuzcTmq+ThOI/5jfx4gZw/r0bxH0qGHQUc9NToDjeYb0SROTaSxMoaHznqx4k2O4qTWqNQna5EHaGaeaRCgbrXx39Gg8O3Ik3n33PZEh+Vl8FgKWSe+h34vAy6gp/X0Er3322Uf3TL2s6nXfVAW/bhlt8jPczUNJ9CRQ3X///bL5DCOd4PG///1PzD+TMMyBGy3IONMJRGwSQeczw/tkh8/+eTZmz5pd5a/ipjX1rao/PEGRgMUifoyi0ZnPlB0CmIkAuutk1bfw1uSAr/65Gdspf+M44D1IpRzwevCB+yVHkSBF7YoAT7AigBGMqSmaPEdytKi1Eri23357i9puNiXJolaVpWLonqqnSVfB1pNg6+q21cu/sK4UfVEmuZggxBw6huD79u1bVWLY5MzRfKHWxBLHLKLHpg6slGCc69y8xrHuHrNxshsfkKEjmJpRPNdsbFY+IDOcxFJ2tDFETNN6vq5ksSH3kcimxWYYzlJ3QCsjgMWXVpWUiC+LAQqey4oR1DbJ6qemST8gNVAexidoqq7SH+hOll6X431Dxq/XrJaAglWOrAZGpV599VUx8ZhCYgrnUQPia9xs3GiGTW4c6t98840AGRs5mGRiU60gP78AhYWNZWPSxDMJzcZXZThUJrpnzEUSMFmEjyBJLYTn8WD0sVu3bqLd0WTaOIfjSP8T1d71wXw3k3Fag/0pNcgG7IwNn9eSlykjOtcJTKbKKWXM6CCpH0xbIthT2yIIU+4k1vILYr9O+6FZ02Z/2kvqv6r72VewqnuZ1vkdaQZ++OGHAkqsSsBIlSloR6Ine/2ZllmmLhWTfulEfuyxx6RVFrUd43ti1ItOYzZ/oCnHnzTtuElNAnBN1AVuUqazMJWHPQiZUPz9999L12YCFkGNIEkN64ILLhBTkZ9T01EtrfBvyGzdYGVuns7ASWckbnHl2xDtqiJbtoZaK31+1KwM452aKausMi3prrvukl6JTKLmlwKfmXJimzHmHbZu3VqrlP6NmVzXpQpW65LQZvA+a1Mxl43AwPLBBCpqNSwn/OSTT0rxOdOIlNoTtQDWXGejBoKXIUOyJyA1HpqRrLJg/FnG1HMnEBvQMuagceAbs9GYjizAN27cOLz44ovi/yIoCl0gHBYqALlLBC9qb+7E5nWJ1W1+ru3cNTn2zeuiFWaYsuNUdKAZSKBi4x4CVSKeQDAYqKqzRV/gVVddVZWiQznTV8WsABYwZKXUp59+Gl9++aWk+JjEb2pfF198Mbv2yJ6qiZ+1rmfW99cuAQWrzWiF1GQ6sNRLnz598MYbb4iZxw3CjbjddtsJIDHHjRuKPiymmQwbNkyihIxkMZpH046gQZ8Su8mwbIxJ7DVlVSiC6iH/6mIxZVzcwMbfDTv922+/FQ4T/WHUuEyRPt6HCdV8Bo7fmK8G7ExRP/N5xklfnYC6tmniuSZ52V3VwVxjggtGByNQxSVpe3UCNuVlqlKwBhi1LAIuNSvKnIDF11jCmcczzzwjvq6xY8cK6FPTInCxxjyvJ8VETcG63VwKVnUrzzq5m1nkdNgSfJhGQ63EOH35k3XMaXqYMi5s4sDWW6xfxQ3GzcuqnQQznkfTkZuam9J0oKmJk7Q+D2ByAHk9TUuaTPRdUaOiefj888/LOMik5yamj4yaIU0salnussprAsm1VWFwj9F8vvs1ky7kBAVWv5PIVmPwSZllOq1srCxZhUaNGov2SV8gfVIE21NOOUV8VARXghDHTLAn8NK/Rzky6kpfF32JrP7AWvf05bF89IABA6o+WbWs9VlV6z5HwWrdMtroZxiW9OTJk206rBmVItjQV0JtiGYKyaDGNGMnm1tuuUVKpFCLYI4br6MvhR1heDAiSK2D1/NYW25ebR7YcLiMdmNK0bBf4dChQ6UTjin8Rw2PZhZNJlNR1HTVqa7drS9Y8To+s+nEY65z2OfUpWzMmztXNCkCEWVWXlYq4NqGDVstL6JRpykGrzG0j7feeku0JPr7CMamXRhBmFFAd04iTWCCGCuc8jMIbqwvz2qs1LBqSpdSras2q8w5V8Gq9jKrlyuqf/uuWrXK5gag85x+KoIBuUCkCdAcoUlFoKCfiFoLo1h8nw5tJi3Tf8KDrxPoqmsea0pSrg4a7r8NEFSvvmD8Q3ydwGGSifk6S9Vw4xJMCJh05pMPRo2vJoZ7bcw/GVu12TALeumSxfj666kCVF9PnYolSxYjFHQCCLFoJVo0a4aOnTtjr307ofP+B4rmxHETtExRQFZtoFZLbYnaFIMLNPH4xUCZGp4bn401tah5UePi6/QJ0hm/1VZb1bjHFKxqv40UrGovszq9wiza6mD1/vvv20xCNgRLmlKkBlBbMZoJfSls7c6NQvDh+4z+0fyjhmDMs6oKnuEIbP6X7WCzvoTKmgCsOmCZv93J0QbEqPkxOsgxcZzc6BwnW8ibZOg13W9dwk6m0qioqBT/UiDgQ/GKFRg37nO89OILeHfUKMRiCflGNgvd/bvPC7TZvh0uv/IqkaPxdxFEqXmass9vv/22jNmUoWHNLAY1TIDCmKKGWkIfIueL4PXAAw/wWvl4rem+rtlc+/sKVn9PfvVyNZ3qrJRAJy43CRc+zSu+xm91bnr+TQ2F5U0ISvSXMErVpUsX0ViMucffTUcYAzoEL4KGu+hebR/EaEBGO6oCmywnwZiFppYUndH0WdG3Q58ZzSX6thjRNOk/Zgy1AlGJvKUEqBKJpDDS77xjICorKtGoQZ7IIh5LIi/kRTgUFF2MuYKxqI1QxIvyhI1kBrj99tuFGkKZmOYaDE4wWEGTm18a7BhNmgblzuqqpl49TUvOEf8mn43aF5+BXyY0e3kuq5JW16ZUu6rdqlOwqp286uXs6lrVxIkTbeajcYMQWGhakBn+0ksvyYbh5mA1THZEpmnCzXXbbbeJ6eeuUeXOCXRrPGsCg5qc3bXxHRktyWhuFJZ7DAQn+oFornKc9Ks9OXy4gGlVEjVDdVVljqsbedXFb6EySppECMuXr8CQwQ/j0cEPo3RlKZo38gHJFNq2aoIWTZugbZtWCPj9AiJl5eWYPXsWfltYjCWlgC/iRXF5Gr0v7ou7738QlseLkN8rNbAWL/oDZ551FiZOmuJ0qc5ksPvuu+GpJ5/EHrvvJjqbqVxh/ICkk/CLhZ/FAAMjuV26dKnaazX5sOplYf3DbqpgtYkntKZv14EDB9qM7NFXRZOCB+uGE5AIHvSh8NuaPQG5yXv16iUagAEHs9lrAzT1KQaziQm+5Cex2w4jhYzKDbzzTvGx5WVbfaXTKfi8PqRTSfh8XmRYMyvLkbKztbZMiI/MdI/Hh/nzf8fNN96IN155Ht5kCmEb2KOtF8cf1gmddmuHdm1aoCASQmnpKsDjQzAcwYI/FmHyjJ/wxodf4sufMvAUAEsqgPsffRLn9zwfQQ8Qr6hEXsiR70uvvYXyaAzBSATxynLceP01uO7qqxEIkP7g1PSitkqTkF8MrI/F7tP8YqFDnh2yqQGb4n6qVdV+xSlY1V5m9XYFv3GpKZFqwBbtNJforGV0j9/Ohg1O3wgrW9L0IH+K/p+tt95azuWGMG2w3A0W6m3Q67ixm1rATcx/ZIIzvM+Kpft07IgnnngCe+6xB9KZNHwexzwN+H1V0TxhcLIJqwCXFwQt+qroY1qw4A/0vegijP14DDyJFJqEgYP3bIXepx2L9ls1QF6mHMnyFUjHnWoT8AWQsi0BLYQb4rt5y/Dce1/g/SlL8EcU2Gnv/TBk2JM4YN/d4SEYWhmMHzcOPc7tiQWLl8JPWki0Attt3QIvjByJ/TrtX6N2RbOX5iC1YoIYI4bHH3+8PD+BjV2zFbBqtyoVrGonr3o/e8yYMTYjfvRJUSOhKcGI1N133y2fzVD6mWeeKQnJBDFudOaomQiWO8K2rvrl9f4wWbKp0fAMj4lMfAYPSCQlQN16++1iHobYJQcWYtGomHaZjFOJ1Djq3T9Zg4qgdc/dd+GmG25CYZ4HViyDEw7bBX16dEXLSAZW+VJErBisZBQ+D+APBJGGhXgqDdvywhMqQNyXj4XlwLUPPI2vfizGyhRwavez8PCDD6B50yaIV5QiGArj0KOOwWeffY5Afj4iwQBWLV+GEU8/jtNO74FAMCy+MWP2Ua6cj9NPP134ZgRf5m6ySKKWTd7wVadgteGyq9MrzbfsfffdZ5NHZVq+s9/dSy+9iPbtd5ZFz2ggwYv+E0bYSEp00xMIUKaQ3roHWHcZemv7LHdKDH+ndsEoGWkNyVRKCtzRTGI0M5lIZKNytpxnaBBu/5cDyEFMnjQR5599Jhb++gsJBwHVAAAgAElEQVQCGeDYQ3bBpeecgkJfHOFUKXyJUgStJMLhoGhmyWgUSSYvB4PI2BYqE2nEbD8atGqHdyfNxgPDX8OcZVFUpLyiybIdPTIpwOfHQ4MewdXXXQ8SSxs1LEBZ8UqceMKxuO/Bh7HtdjtUPT7HxughAx7kxZHrRrOdz0gqxF577aV7bt0Ls8YzVHAbKLi6voxsdZp11DiYtMzIEjc2v5EZAaQpwdLFfJ8RNdaQYnoLc/1MY1F3HSs3S7yux1rb+7m1PdNnkFG1M844Q9pnEaCYLHxG9+5VAQITBGDdKR/VInFk21WNWQkAN11/LV58ZgS8GWC/HRvghn7nY5/tmqJ4/o/YqmEI3nQMViaFtPyzxXFu05wkRnsseLx+ZCwv5i0rR4tdD8QlNz2Ajyb/jlUp4IJe5+Ke+x5ApKAA0YpKLCsuwQldT8I330wT/5fPSqOiPIHPvxyPvTrsI6Yd5U/z79prrxV/I4GKoEc/HeeS5nu3bt10z9V2AWXPV8FtoODq47KpU6fa5B4RtLjw6YciKZS+Di52aiPcACQo0klNzYQ+IYbYebj9Q5uipPDaZGLGw01NDZFRMpZkuf222xDw+cW0vX3gQLTYqqWYVKZ3YTrNJGSSTQlaTMp2PmXUqHdx/tndkShZhcIAcPsVZ+CoTjsjunAWWjcOwpOqRPmqlQhFIuLfgjR6jcAiZSORQCpbiM/v82J5RRqR1rvgmXc+x5Dnx2J5DGiyVXOMev8jtNt5F1RURhGO5KPPxX0x4qnhCPo9aJAXxOLFJbjj7jsw4OrrZEykKfCZ+IymDhbnkHPJSg7sek1/nbs8cn2so3/qPRWsNvHMumkLI0aMsBnl40JnRc9OnTqJT4raEyt7MhzOCCDTVsipMg53buyq8r22Yz7VpjdffYqgJg3PlFYZ+8kn6Nu7t5RSJiWDJm6Xww6X1JhAKORURwCL5TkjZAYNF2x5udM+6/Ehg1HoA449cAece/wh2L1VAfwVi4FoCfIKG2Yv9CIDL5LptFPSxYLDO/N4IKWOK8uR33Jr/LEyjSWJMO587EV8Nn05KgAMGfYozjq/lwBc2ob4n/r27oVFCxaisFEEpaWV6HHW2bjp5lulUip7NhKMWHaHJuTjjz8ueYZ8j3QNlpBh52iW48ly4XT/1WLxqbBqIaz6PJVda0hXIAWB/g5GkahRkWRoTEAWteOi//e//w3mrnHzmbQZU3/K7VTfXOqiG6a3qcTAscp47YyA1bBhj8Pn9WDY40/g7HPOzRacArIKERIJRv68EhRMJVP49de5+G+3UzH3x28RTAH9u++P3t2ORHrZHDRp6AOiq5CsiMIfyUfS8iORBjxeCwGfD5bNBqdxMSvJYPf5mMBcgXSkOfzNtsctDz+D1z/5GcUpoNtZPXDXA4PQuKgxEgn6ApP491GHY8L4L9GoAZPFE2jQsBBvvvUO9t9/fyG9MsGc/DHOm/Evct1wLmjas5wO2e88sqV0dA+u58ZSQa2noOrrNEMQnDdvnt29e3dMnjxZnOc0HRj6ZoifIXfWCadjnSVeuClYk4rAxKih2xFtSKGGUW3GXRMRdGOCWfWcP6mXZWfw1BNP4OoBVwm5s3efvrj33vvhC/iRSKbhD3jB03gQ21J8zefFkEcewW233oLkqhVo5gHuv6Ybjtx7OySWzkFBxALilcjAj1jGh7Q/LBFAkjwTlWXIC/lg0wT0epFJJuC30kAwguXlNlJ5zTHp56W44f4XsSQBFLRojdff/Qg779Ye8VgGtp3GFZf3w/DHH0M4EkIoEMDKlaXiY2TSMiO2ZLezHj7zN6kZk7jLdCPOKb+A+Dr9jtkqrLr/arGxVFi1EFZ9ncpIICsmUGPity19T/RLcfFTm6K/gxFCRpPYIooRQFbhdPt2ODajaVFrkW7D2a7Ee++9dxWTvPo19fVM1e+7JrCaMnGCMO+//fY7HH/CifjfQ4OwdZutEUuwRhS5Vs6RiCcRDPgFaPr3vxzDHnsUvmQax+9dhCvP/g+2bWghkChG2JtGMpGCt0EzJH0RZPwRkWkASaQqS1AQ8iJNzcryijZnZeJIZYCYFUYq3AwLKry45t5hmDCrAqsAvPjmaBx/4nEyBvZNHTpkCG695SbE4zH5EilfVSomOYMFbDJLXyKruTJ5u0ePHlIAkVFbJnEzssmASTbaq3uvlotPBVZLgdXH6Uxw5aKmc53VFBjpYqNNghOLvrELDb+NWSuKuX/cHHTc8nB3rzEdkblZWNGSJgffp1nCjcPN4s4VrE0OXu2e+6+UiDWBVUVZKfr26YPnX3xZwvvDhj2Bgw85GPEE+xiudqiXl5WjID8fq4qXo/sZp+PDDz8Gi93cdFZn9DzhX/BXLhWaQjpWAdsfQSLcFMUxG78uXIymjRuiTVEEyVVLkedNA5kkMmA7Mi88Vlq6NFvBfFRYeUjlb4X7nnwNr336vZBEL77yOtx020CEgpZwtb6Z/g1OO/00zJk7FwX5BSgrWYlrr7lGsgv45UCO3IQJE0Sr4pyyBDS1K5aZpq+Mviya+ttuu62SQmu3qLRETC3lVW+nP/zwwzbNPiYuc9EzwZfOdP7NInAEHDrZmTPIMD/NP9O6nT8N8BDoGJEiY5rf5jwYeSP94fzzzxczkoep2FknKTnrQddaE1hZyIhZe+dd9yISCeOxYU+ge4/uSKVseH0WGA1kU4dkPI5AwI+fZn6H8845G99+8x22LgAGXnA0Tjp4NySKF8JjJ5FI2QgVtcb47xdg3LQf8MvceTiqywE48dB9kVm1CP5kGUIBH9Jg+/gMvJYtXC9/MA8lcSBTsBVe/eRrDH3tE8wtBvY+qAuefu5FNCsqRDjkRzqZwKGHH4aJEyaiUVFTlCxdiiuu6C8mO2uHnXbaaUJXIDAxcss54N/0NdLs3m+//WRuttlmG1UUarmbVGC1FFhdn256AjKzn+Yd02VottB0oxOd/g/WOee3M6Nm1LBYjcGQKwlEjLiZtljUqpiuQ62K92A6Dn0q7BXIfoOmXZcBq7XVtarLZ60JrGw7Q/aUpAtde+11KC2rwF1334Orrx6AFOumZ9tnSfV0mxpRGh9/8D76X9YP836djyP3aYtbzz4COxVaSJatcEop5xchnd8Ctw97Ba99NBcMJHbt0hoDzuuKIl8lPNFi8V+lBKyYwsOmD+wl6EUCQZR7CvDNbyW4YdBz+H4x0KRVK4we8wna77gdEvEo8vLzcPbZ5+DZF15CJL8A8fJy7N+5E5566ilpKsGIoOnpaNKfjB+R88qsA5b0YVlqHu7W9HUp73/ivRSsNoNZXb58uU0ODiNIzAdkWgprfT/33HNi7rHnH0GKmhV/0klron6m1AvBgLlyrFZJigPD7DQ52OGGZgkpEWS6M7mWpmVdVQpdX/GtCazYyOGdt99C/yuuxJw5v+Ly/lfgzrvvlhxAXxasErEogjQJPcCzTzyO668dgOLiKC7vfhgGnNQRwbLfEfRbiMbTyBS0wNfzVuL6wS9g5vykmA4dt/fjlotORoc2DeGPFwOpBFJWAL5AGKlUQrSrdCIBKxBBhScfJVYjDHjgaXwybSm8DSJ4d8xY7NdpH1SWliBSkI/HHhuGmwbeg2VLl6JRg4YoWVksXwakmLAYIv2M/EmfFs1wfrGQjsKfBDDOZ8eOHXXvre/iyZ6nAqulwOrj9NmzZ9ss1EYNigRPghVpC/RN0WxjtxoWh2P6BjUsvs5NwAiT++BrBDQ65nkOi/SR67P99tuL6cFoI9nV9K+4ywnXxzNVv+fawIpJ2wSpqVOnoueFF+HhQYPh9/vg9KOxkU7F4cmk4fV7cfctN+OuO+4V7tUd/U7C+Qdvg/SS2WjYqCHKExaSBa0w9PWxGPLGVKSCfiCdxFZh4M4+x+Ow3VvBH10OOxVD0hOG1x8SzY4pNal4FLbHj7ivAJ7CbXHn8Lfw2ifTsCwKPP700/jvGacD8Sjg92La9G9x1gW98f2MH2R+ykpXibwpXx70PbJKKOeScmZklxowv1j4hUGwOuCAA3Tv1XLhqcBqKbD6OJ31qwhCjPoZTYm+D6bT8GCaBt/nwagT60JJhCsQkNfod+K3tgEgNplg2RU2lqDfhBEoVnOgxkVqBM0QmiwbMyWnZrByWmRNnDQZVw24SsD6nLPPwdDHhoKJyhnbhp1Jwe/1IBmPwe/1ov/ll2LoI4+jwAIGXno8LjhiV1T8/j0iQT9KE0CgZXtcN+h5jPhkHjKRIDKJOFoEgYf7n4Ajd28FlC6E32Mj5StAgrSITBIBcrC8FuLxFOKeEOwGrTD4pY8xYvTXWBgFBlx/Da6/ZgACeSFegOIly/Hvrv/FlMlfo7BxYxSvWCbaLiOB9B+yww9/p8xN/0HT0owyJzh36tRJ914tN5MKrJYCq4/TmWbDZqWkLNC8I3mQ/it+U9PfYVrG02nLaCATZfk7wcmYg8aHxddo9p188slSqZJRKfq+CFxMFibo3XfffcLZMjXETZut+ng2c8/qkUfTQ9Dr82HSpMm45NJLMXXSRPS98AKJlnlDedR5hAvlsSzwvBXFJTi/Z0+8/8br2K+1F5d1PwZHd9wRmZUL0CDPi4rSCgRb7ojrh7yMRz/8HZ4GBSgrLUO7Ig8GX34qDm1fhNTyeaKRVmQC8AbDsNJxpGKsWxVELJFAxvIhk9cML348HYNe/gJzyoH9uhyJxx8bgh132BaZilWojCdwwunnYuxHY1HQIB/lpSWizbLmmGkJRhmzhn7WLyU/GRRhfTJSHJh9EImQFKbH+kpAhbW+kqrH88aOHStgRQDiJmZ3ZZJA2VSTQEJNitQDHkcccYRoWqZulfnGNhoWf9JcZMkVmn70gTGczqYS3CR0ADMPj852Vhg1VS7rJCq4FhmtCayYXDz162noJ2A1AaedfIL0QyxssbUQN32yQm3JDZz+3Qz06n0JfpzyJY7aMYRrzu+KfXZsjcpl81AYsiXnz9N4awwc/jYefm8BkqQb+HzYtVUBbujeBf9qV4hAdJlUXShP+WH5Q/DZCdjJuHC4+MXAJOdMuAm+mLUUdw5/G5MXptBml73w+isvY7edtgfi5VKF4ZiuZ+CDdz9Aw0b5KFu1ErfeequAldF2STfhvJEQytcY+KAJyHljDXf1WdV+QylY1V5mdX4Fm0PQz0EnLEPc5BtJnlyXLgJW5OuwGwy/tfka+VfMNzMMdMO14sCMpkXnPP1cBCRuEt7bVB1lagi1F5ZK3tRgRY1p6tfTcVGfPpg2eRIOO7gzBg1+BDvt1gGW15L8PlYNDQRD+ODDj3HpFQOw4IfpOGaXAlx2xr+xb/vWSJX8gTzEJf/P06Al3vhiBga9OQFzlgOVceCkLjvg8m4HY9emAVgVS2HZNqKeMOANgCQGpuAwD9HR9mwk/Q2wON0A1z40EqOmL4O3oBE++/QTdNh9V9ixMgTyC3BCtzPxzpvvoEHDPNGsmFHAVBt+ORCYac7TrOcXB/2I1LTok2N+IAFs1113rbFFV50vrn/QDRWsNvFkkr3Ob1pG7lhWhAuc0TpqPmS0E5B++eWXqggTW8CTHc1moUZbcafNGD8Uo1MEOJaToVlJ0ONPbh6GzWkaMnq1qcGKmtVXEyaid58++P67b9HloM5CZWi36x7CLA+wvDCjgaEQHh70CG64+VZkSlbg9AO2wuXd/43m4TQa+JIIeFKwkykgrxA//FGOR179BKO/XIY8P9D/wqNw6iG7o0GmBOnSZZLMnA7kI2UDXtiwYEuhPy/LKafTqEQI3mbtcMU9T+KV8b8h5gtizJgPcWiXg4FYORAI4MJLrsLTz4wUsItWlInZzdrr1OSM1kvZMpdxzIdjhIfFSC2TnGmOt2jRQvdeLfeeCqyWAquP0z/++GOb5h21HzrO6fymD4TmGw9GB1kHnI1DGdljviDNOgNMkmcn+XMOOZT/WG/8lltuFd8XuT2s4sCDFSzZu4/Oe2pW9KPUzme1HgzQGoS0RjPQsvDOqNHod9nlWPj7fHQ78f8wZMgQFLZohdLyKBrlhxGLVkixvcsu74/Bg4cgggz6Htsel51+NMKpYjQO2kAyJvJAsACZSBN8MWMeJn7zg2QEHH5gR7TOt2GXLUXYk3IIsb4govGkpNyQ78V6V9LKPpNBWcqLyFbtcevQl/D82O+xJObBg/8bhF49z0eAzZzTNm644z489PAjSMUrkYhVClmXvkVqVgQsMSmd8sWixXIeWMOLAQ/jy8rLy9P9V4sNpcKqhbDq69Tx48fbzPXjZiGYEKxYu+q445ycNDre6RMhSDEcTvoBSaTumlVuMDB1vhkiZ8ljagvcNKaJJ/8ma5zRwU2tWXFjDx78CAZcex1iFeW4tE8v3HPvvfDnNUA8mYHfyggZM5KXh36X9MMjQx5FgW1jQLcOuOCEg9AAFQjaMWSSMSSSScAXQrBBEZK+PMTSjPDFkRfwIFNRDF86ikiApWEySNkeJztatKoMbHicaKqdQUXSA6tRK7w8dhoeeuUzzF6axAkndRWyZ9u2raUcxO33PYzbBt6Z1fwcsGISszsNinPHe5pkZo6FGi3nVcmgtd9NCla1l1mdX8E28eyGQj4O/UosZUxGNCN5BB5+S7/22mtC7OTvrO1NU8mYd9XNQf5NIGPlBWoprP3N3+no5etMkqZPjGbipgYrggMJoaIx5UVw7x23ou8llyABv2AJU5lTiZh0wul94YUY/vQIhFNp3N3zXzjn2M6ILZ+PPD9TcrzSBYes9LKKKOD1w/L6BaSp+ZCa4PdayKQcjYdOKta0Is8qlc7A62NPQYcpn7B9qPTk4+fiDG549BVMmLUS7XZpj5HPP48992R5Fw9uu+Ne3HXPvVKJNJNOSXoUOW2M8hlaCeeBXwwMlLBmPv2MzCbYbbfddN9twC5SoW2A0Or6kgkTJtjkVdG5TrBiigzL47IOuwGi6dOn45RTTpGEWDrI+T4L1vF9U2zP3TPQaF10rhOs6HA3TSX4WcwfNP36amcGbtjTr8kMXLjgd/S9+GK8++4HaL9zewwd9CC6HH4EisvYETkPXrHwKhEIBdHnwl6SF+mPp/DARf/CGUd1RHLVYgQ8LN/iVJ1gfqH4uMSko+Pc6S2Y36CBVAytrIyKqUaHerSyAgG/F2mCVTAi/iWPnQK8QayMW7Abb4PzbxyMcT+WoLBFEV589XUceOD+gG3hymtuwJChjyGTjIspSXIogYhgZXyIBEUW2yPPjX5Halj0RTZr1kz33QYsIxXaBgitri+ZMWOGTQc7nevc1CzOxvw/loPhYSol0PSjL4uNFQhAprWThMttoKy8TDYiD3c9K2psrNjw008/iVbF9vLMOVzvlJsNc1PJONw8MMm/yzaEMDyr9997V/xxS5atwAXnn4e7br8FTZq3QAoeqRJqEUgIIHYGvXpegGeeeR5t8oB7e/8bx3XeCcmKYniYAWh5nTbxTE5GWq7h76IsWR6kLR9SYKnR7H2Rgcdm6y9qPxmkPQFxsFtkt6dsZPz5SOS3xNUPPY83x81DzAu8/f4HOPzQLkJd6Pbf7qLthoKUfUa+OOhTZG18t1yZp8kvFpqAnFOSek0rLuaFsiVXXa+nf+r9VFCbwczOmjVLyhmTzEntgI5vljNu3769jI5OcB7MHWTlBG540hJ4jqm7TnCiXyeVTFaVNOZ7BDLDbHc74jfVY5vxOhs6iKuuvAIPPvg/Md8GDx6Ei/teJIBSHrclPzDsg5hapStX4LxzzsK7oz/EQTs3xW3nHYU9Wxcgk6hwUmYsrzySh0WM7RR8dhKeLFhlLA9Sll8AK5NN4uE1BLmA5ZiBKU9QAhTedBxpturyhZHMa45Br36GEaOnYkEFMGz4k+jRozssrw9dTz4V77z9DvIL8gSsqAWzSgYjubwPn4+RV5r3s2bNqiLl7rffflV7TvsG1m4VKljVTl71cvbixYttFqDjNzW1D1IYWNKFKTPueurUvFjIjTwd0g/ot2KFSpaUMU0j3Jwrty/LkEcJWKa8sCEw1stDuW5K89NEHTkmjoGaxs+zZ+GC887DtzO+Q8NGTTBy5LM46rBDhFLgCYZFs2Lkze+1UVmyAr17XYDXXn0He28TwsDzjkbnHZsjmYi6wIpuckdjImDxd9HuCEsEKov12J1OOQ5YZeC3U1JfvQqsUjHY6SQsXwDxUBFe/+pnPPLyR/h+cQbn9LoAt912Oxo3aYITT+qG0aNGo4BgBVsiuTQD6W+kKU8Nl6Y2Ca6cHzal5e8aAdzw1aZgteGyq7MrFyxYYPfr10/qHrH+OjcyQ9w33XRTlQmYrdctTlwSEAlq5GG99NJL4iPh5jDmB//mPzcYmQihNEswLWLq7AnWfSO3z8poV/feczduvZlVNxltO0lC/Fu3bC5mVoJwQtBKZxDwAcsX/IaL+1yIUaM+QofWXtxx3tE4cJdWiDO5mFwpOsyznCmSPglG/FvMQPnNI224nN+dZe+10/AjjXQGSHqd+mC+TAxIxaUlfDxYiAm/RXHXk29g4pxKtNt9VzwzciT22LMD/n3McZJjWZCfh1gsKl8enD+CFbVczgUjvGwYQd4Vsw4OP/xwLbi37qWyxjMUrP6G8Orq0jlz5kizCKbHcGGTG0SfFEuNGE3JJCqzmzE1LibDstgbfVg0CemXonZVvYMxgY+5cCbZ2Z2es94+q7p60GxlUwIXHf9nn3UmPh4zRkDpvgcfBAHbK4qPF2VxG3TnMBpITWnahC9wUc9z8eMP83D64e1xwxmHoLk/igybkBKKLAeGHCDKApIBZQEvAtfqcwhe9F7RXKSOFfc4MgrYUXjSCVg2ECOT3dMcl945DON+WAWrIIK33h6FQ7ochoMOPgRfjh+PRo0ayLMw4scIK+eEEUi2SSN5l/mZ9FtRq2rUqJHut7+xllR4f0N4dXUpm0ZQiyJPh/4lUhL4N01Dd6SOgMWDhE6ag9SSTLNTOuP5vtGaTB32jV0KpiaZ0A/HcXEsBiBJqbj+umtRXlqGjvt2wLDhI7DHHns4NINQBJVpSPcZj036QhqTv/gU/S/pjR9n/oKzjtsLV5+8Pwo9ZcI8pxZFA0/Aik1M4RUfFQGJB18RH5ak1jiARpNQ9K1MErblQ8IbkXMJVr50QigMUZY5br4rLrplMEZNXoJU0IunRoxE15NOwUEHHSQNWvPz2JKrVKosMN2G9AQ2NTX1x/jMbE7LQohZnpvsOXcLtrpaR//0+yhYbSYzfPvtt9usM0XNiox1ljFmdMl0MKY2YpqDsmIo618xZ5DmIJOcSVik34QgZbQnA1wEMfqJuHGkFx+TdbOs941RKZSfb8ZFcTPJl8nUkydNQl7ILwTYXn0ucWbCTgvIJNnunS200imE/RYmfv4Jrh/QH99N+x6nHtYeV5/SGa0jKaREC8pIh2RqQ3Smp9l+ywpIBQUepCME7AS8Wae7zXQb0dkYPUwLWMUJVhYQykTFyc4aV1ErgnjhTnjg+TF4ctRkrIgDffpdiv+edjouvvgSfD9zhpRapk+OpF1+uVDGDJbQJOTc8Xc2quX8hUIhda7/jf2mYPU3hFdXl5aUlNhMdGVFBJpyXNj0d5DtTP+HcZ7z84xmQic7Q/40QQg41MTo5zLalwGsjdluqyZ5uB3+BGGapNRACMx5kTCOOLSL9AtsXNRM/HPUVMhE92RrdTEyx/zAV154Flde2gdlxTFc2eNA9O/aGdaq38VsdMAq4wIrH5IEK1IVJEKYhl/AijyqDGlSJDdUgVXG40PS40Rcg5mYgBrSCcTsICryt8FHM/7APSNG4fuFldhjn73R46xz8dTwJzFzxgw0LmyC4hUr8PY77+A//zkOz4x4BldeeQVKSlaiRfPmUl6a6U6hsFMOJpVK2j6fX/fdBmweFdoGCK2uL1m0aJFNs44VQQkyBCiyyw1Y0Sw0Dmrzk7l+NBu58QkAND/4DU6nu4m28XU3WLiBqzpJc0OfyU1ENdwpN1WCGpXhVpHP9GE2qZckSfp2nhz2uLTgym9YID0CWWghEXc6MtPLVF4ZFaLnVVddgUfufxCNANx4URdceFwnpIrnC+RI1E/8UlmvlDjS6ZFylrfjwSKYGd8VuVfZ9wS8LKQsn5ztyyTgI68LKWSsIMr9RVicaYjL7h6Oz75fASscxEn/PQPTpkzGjz/+hIKGRXL9+C/GYfnSJTj9tFNRUbYK0cpK3DHwNlzR/3LRKj0+r1AeJBJpea20LVmc8FnZ2s0bOgFb0HUKVpvBZJO6wKx8U4Od2hNZ7HS4s7sNQYBAQx+Vu5UWne3kXU2aNEkifyR8srwuSZ9uXxUBxZ0fmPWZ/Cla+HfEwPvzMC3rpe54Jo1gIChhfGqGfI1jp3lLVjcPViq45657sP0O2wt9gAc1pUwqJR2UeU08DWGvX33N1Rh8z71gb54beh6I847thPTKhQiy998GD9443B3zkWDGVhKGUJqx/Fie8MPXtB1uHvoq3vnyJyyqALbZaUesZLZBaYWk6eTnF+DUU7vhpZdeFKCKxypxVo8euPfeu9G0qEhMb0cFdJz/DnwKjxdeqYOjx/pIQAW1PlKq53NIDmRWPs04+qzosGXDCIa7STZ0AxQ3MA8DRmyOyvQZstMJFkz7oInIUjLk9xDEDIXB0BfM33VpIhJQ6bvhuKgx8TDaG8GMz8QEbKbLMELJEjd0sh/QeX+wZktFNIFgMCC9+Zw0GafleiJjwR/w48orr8KjD9yPphZwfa+DcdZR+yBT8geC1FjWOj9ro98baoPUhhZzkiYjTUX+o5O+OGYh0HwHfDB1Dh546nV8vyiFJAGVeYf+IJLRSrRs3hwLFy9Co4YNEY3FZe6Y29m8RXPmNMrwbJtwnEVkA1U2+a8B3YPrub9UUOspqPo6rayszC4oKLDee+89m2VfSJ6kH4p1jwhW1JbcppYBAAIYTaDcMr8AACAASURBVEYCEAGLmfzGJ0TOFQmjfI3XEkB4vgERPktdARWBh+Dn5m4Znhdfoz+NNbXofGbKD/saMtWHfDGWwJEFaFmIJ9MIBP0Sv2OyMWuz8/VYMgN4vOh3ycV4ZuijaB0CbrjwSJzWZQ+kS1hPnfyqDT+ENmrR72XYWKvNRRJJ0748rEj4kIi0wGW3PIAvf6xAMgiUZ/zw+4PI81kS0QyHAkikUji526l4bNjjCIdZyIbaplPrdDVgyW/Zf3xE9V+t7+z9nXle38/Q89YiAZNywdLGNP0INNRQmGtGkiQ3tAErd3t485pp78RUDzrc+Td9Xm3btsVdd90lyc8EDJqW1Lyqk0XranJMpQdThsZoVmwJxmgfTVVqX9QUySEjMIsvxyIW+VbrHHRc2WmpoGBnbGGeR+MJXNSrJ14f+Sy2bQDc0vt4nNh5B6RWLpRmEht6EDJo/glPS3oYOr4t53AoEExwXlYaR17zthj+2gd49OWpKPUAK9I++IL5CFtpqeEeCAZx1NFH4+FBg9C81da6rzZ0UtZynQq1HoS6IbdkTSvWYedhKAo0m/ivJvKm23FuHNikOrBGFbUXajz0FZFsSjORdd15mFQQ/l6XpFC3U5/3/vbbb6UsCp3+dKYTzAjE7GPISCefkWF/YxqJQ5yGUobF8RwAYSSQaS+l5ZU495yz8cHrr2GHRsCtfbvi//bZBsnihdKya0MPh29lwCpdlZ5jXueYGBTwBfNQGs9gVTqEywY+ignzgBLmbDYsQipajtYtW6BXr544/7zz0LR5M+nEw3xBP3M6aep5V2tPjmPdeWpx6G+KdIINFdgmvk7BahNPQCwWs8m/YU0rMtbJeDZEUDYgINiY0i5mqFIsLlvnm+3JmaJjAIv+qssuu0yqUpr70BxkJVIy3QlghndlHOJrE4GztdZ8mHpbpi8ex88oJisMsPifOVhJgk0syAkjSDLC6WzZjBTDk0w924ZPeGKil4lmZXt8KC4pxTln9sAno0ehXUOC1Yk4Zq/WsMuWSNebDT0ISuksWDECaNJzZCyWU/A4GYuhYaNGWF68Eo1b7YAhL3+Ih1+YjgXMnS4oRLy8AqeffTaeeXoYH0VKxgTZr1CSqB3Zuf1SKZt1SeVUB6zEyb4J8p82VGib8DoFq00ofPdHf/PNNzZZ0HSUG5OKEULSE6iFSEUAr7eq5AqvrZ60bPxS7LrMJFpyfEhfoJbFexL8WFOJwGGAal37ZF1gxet5zqJFizB27FiJaJKCQVOU4+W4WUWTAHrAAQf8Sdpkn3ssZ9vaUjXBye/jRk8m4vAHQ1IqZvnyYpzdozvGjfkA7QqA2y4+HsfutTVQsQwWzcUN9Fo5YMXPddJuTLoOta1MljRKhjv9YnT6J7x5mFNiY8D9IzB9CVCcCSJpe9Ht9DPQ/7LLsG+HXWUkscoo8iIh5xnEn+dE/KhVGQgzXwEKVuu/ARWs1l9W9XKmqWn022+/2czMN518GckjsJC+YJzY1dnmBkj4k6Dgrvv9ww8/iBObGg7vZd5nWg7Bg/QGpoww+mgOqWHOlJNAQACIGp3UJbeZp+dE+NwAyc+jucd/rDjAqhGm7jjfY0SS2iL9U6z77g4UOPfxAuQ0CS+Kmgw5U45WRcBi6ZaMxy/+risvuxQzJk/GPq0s3NjrFBzWvgjp0qXwcHwuxcSAp7CYsnJZ08StGayYvOOQRjPxCuGAxVYsgyfUAJlGbTD4pTG47+VvUcoTggF4ghEcckgX+ccu2HvvvYeYtPTHpdLMFrClvT2PWDyJMDUvglcqI1VGQyGtabU+m0vBan2ktBHOKS4utumfYocU+nYYESQniZqKOaprQSYyaMromiRmk9pCsKEfi1VC2YmZ1Q5MziCTpVmfvUOHDpKTx5/kdMkmSrPTi7NZ3QdfZ6VSAiFTZliyhp15GOUzIEdAYgST6TQ0+Vgo0IAfP98x/xy/nPibqoFVFQspC1b0WbH7zRWXXoLvp0xF57Y+XH9+V/xrh8awKlfA9rL0i9Mow8jHANa6ps2YgUIhZTuubCI0i/URrARCMwkEyKdIJ5BIWYgHm+DXVcCb42fijU8m4Y+StHSCjuQFJHLZbKs2+L8TuuKwo/6NTp0PQFFhRLStiookIkEf/JbzWSxDQ5a+5XFQzJ0ryN+zXxC6P12TqMJY14reSO9Tw2LJ26uuukp8UCxxbErAVG9G6t6Y/N1d8yq78EUjMpuXpiW7OFPL4u9SlzxbsZO0BnbMYUI0C8fxs8w9qSURaGjSkSdFagRpCGzzxfxEUSyCwaouOwQ8lvVloIAalQE+3s9EIc2YVoMVq3wKa1KqL/BXxxRMi2blIVh9NRGX9+uLn76ehoPaBXHVmcfioG0L4E+WIe3xi3/JfbhBy+RA1jSNf4oGymc6bm8hMQjvykaQreZjlfAHfEhnPFiV8iPUdBssrAA+nzITr40eg+m/JEBabCgClCaBiqSFRi22RueDu2CvDnvjpK4nYo/220iJZiZlIxWVbjwIhgBPSACLAJUFfN2Ta9hzKpiNBEbr8zEvv/yyONmp4RAYCCAkFxIECC7UdqSNlEuLcP/uPseAlql2QHBgHXdSCcggZ8NN46Q3+YTVNzyBiFqbOQwtwW0ucqys4USTjw589iLkOEw7Kn4GAY8anQGv1UnNklGdRSg62LO4lU0wTjEB2hfAl+O/xGX9+mD29O9w0A4+9Dv1cAGrAl8KaU+wCqyM6WcCC/y5NrDieCQyV7ULmOXtPK2hMXjErwZkWPqY0UFvGClfGCl/HhAqwIxZv2LS9Jn4bvY8zJq/En+sBCpZYpoYHAjBGwhh33074pB/HYiDOu2LY448DPBkgGiZgFUiYSGY/9fSMVpF9K87RsFqfVBkI53z6aefSmdmbmaacKwYygRnUg9Muo3pDWhMHaNFmFrnsgFdYOb2ExkAowlH3xjbyVNromnHBpzGKW5AxfifqKXxc6l1kb9FM49mJDlT7B5NKgKJngQxU4LZ7dsy4pOmn6lUFaNeHNCM5jEiR2D5E1jRZ0Ww8uOrr77EpRf3xuzpM3DgdsBFJx6Mg7bNR1HEK+BBv5aRh4mUmkTutQcIHBKBo0mtdtQLg12Y7E6li1B+AZKJpLQGixQ4jSdEVsEIMv48BAsKURZPY/yU7zBl5s9YVBLDT/MWYfZCR+OiU51Y3bhxAY479hgcfeSROPigA1HUvAWsvELZgywTxJ/hcFj3pGpWGwlx/sbHsHEEgYntxnlwYzPcz/IjQqDMln8xYGTqV7nNHl7HDWZAikBj/qZWRm2J9+U9+B6pD9988434nZYsWVKVLmNMQV7LFB6CEasHsCImC8wxymjGxHNNrSqOhZ9h/F78LANc1WtrsV48W2g5YIUawcry+TF50gT063Mhfpo2AwdtD/T6z/7o1DooYGWFGsL2OvXTOQ4DVpSD0ebWNCVONVH2DHQSmcmrMv6rKiqD5QFJ9GkrIMAphFVywVJRJFJpePIKUVweh+31I69BE1iBPCwpKcd3s+bhh1/m49tZ8/D1zJUopcPdC6SZTuQL4ICDD8HhRxyJQw8/HO123JF+SgWpdewdFdDfAJe6vJRqP53qffv2lVpI1FAYxaOTfeTIkQIAbi2BoOB2hJva6gQkQ0twa1vusbobRxBIeI3beV/dnDLXukGOr5n7uzvpmHPNWKsHBUxStlNb688IJSSG7Ipknh41K3h9mDJ5Ivr16YVZ02bikB0t9DyuM/YoyqDAl0GkcUtpbGqA0ACWMQXXNkdSh91OIyNVF1hShtVD2XAiDZ+dcPrr+IIoq0wAgXz4AyEkY2Xwp6MIBVgiwotE0o+MP+xEMe0MYrG4gFooryESCOCn+csw5cd5GPv1T/hxYQnmLkujgmdbYakuuF/HPXF6t5OksUTbtm2r9iPXQ9aE1j2anUQVRF0iTh3c69prr5XaViykR78VcwTpY6ImY7QGt0ZjAMNtDhqtwg1K/N1sYDeQGOe3O5+PG99oKu6KDcYPZXxn1ZOqq3fPcZNXq1MJDKh46Rx3QoBOzXWzIjOsjZ4RHtSUKZNxSe+e+PmbmTi8vR89j+uI9vlRhDKVKGyxDTz+CHysf2WxCZfxk1tyLzKbxP/kIre6qQ40+QhWLNhHsJIkG2k44fCu0hkLvnABYmkPYvEEwgEPQp4UEC8BEkmkQo2RZHfnTEoaqfKnyN8bQFk0CW9+EbwFzTBnWSW+mbsYn02bhRlzF2PmnIWIsbigUEUs7H9wF/S6qC/+c8IJCPh9SEu0lF8iXotJ0IarVQdLLGdvoWC1mU3d22+/bbOWFf1CJFoy9M9a3swbpE/ImHFrK1e87jZ/6z5jY4nFzY93iOsCN4I4Qi3w+PDpZ+NxzVX9MWfaFBzQ1sLFJx6ADk2S8FYsgz+Yj4LGRfAVNAYsP+IZS1jvTknUNHxSPjQJS2pUkY/mmJ1C/KRnnUBTlXYjA8gy2Qly5i+nF87qygzUyBxQYjVSXmEAcXWTCjruvaiMp+EJRGAF85H2hVCeyGDO/D8wYco0TJn5CybMTiMTApbHgGZbt8HpZ56Dy/r1w9bNC2Xc4vGiD9IXkRpY9JsF/B5J00knEraXSLeFHFvMg+bKfI4bN85mnSdG4chLIo2BzQdIGDVpN3VVMWFTy2R17QFXlacsqAhesV2px4vPvpiE/pf2xZzpX6PLdh5cfvJB2KtxDJ7yJcjYHkQaFCLSuBkQLkDS9kkNLGqG7LZsZdg/MCl8LtGu6NuCB0yuodbkkdLH7m1QFQ6sSq7+q5xY652vkt7gvOvcwV0CxnmV2qJTCNAjn+0LhAT4ysrLsbAkjrHf/YYXP5iE+asgZZNtvx+nnd4d9991O1q2bIbyFcuR36QIlicoYCXO+i00RUfBalPv2Gqf//PPP9t9+vSR+uqMvpmec6x3JZGpUKjOyrus6dE3pt7lTur9q2blEbD6cdavuPiiC/D1Z2PRZVvg0q77Y69GMQRiK8QEs30hichFGjcVlnk8TfY6a355YJF8yUYR/CckruxftkeY5V4W3VsbLP1lh7hqYGUThNxydDhiDGs6YMWKEgQsRhCT6Qwsjxf+IIMTXsTgh53XFG99MgFfzpiLyT/Ow+xFSYkgHn7YIRjy6GPYYccdkUykWIDQiiUyNstjZVLUGDNM8t6i9u8W9bCbGS7VOJzS0lKbpYpZRqVFi5ZYvHiR1KUyDVDpPDf+p3Wlk9T/8/59WHPrIo7rykm14YaXhGKPB8UlFejT81x8+uarOLAN0Oc/+2Dvwjjy0mXIeIOoSGTExMprVIS8xs3gCYSdLsuMNgrJ1In6iWXIBGXSFGi+MRk8y1yvSVYyttXUq+wp1RO7sw63rGbljD+rZWWDIAQsAUmWvBF6hkOTYN5jLG2h2dbtMHdZOUZ/PgWvjPkSC0sSKInb2HmPffHm26PRpKiZRBLF3+9hW8M4fH7H12cY8PU/15v+ExSsNv0c/GUETz/9tM3uNeQxsYpBx44dBaxIHTBEzurRwM3wMdZ7SG5zcHVuIDc2NzRr0kdx4bk9MPb1N/CvbYG+x++Djs1S8MeKpZpn3PZKQrEdCCPSsAj5DZvA4/MhlUqzooGAnzj4xQPEHc4eX35xwFvpeFVpGDPg6sac20qsDlWmT6ExA/+sWWVNxGxzVWpyBC3xm7FooA2kk3HptFOJENKRIkz7tRgDhzyDOcVJLI8Cx554KkY+9yJCQY80zrCZ1E4Elno69GVtOXmFClbrvaU23okff/yxVA01pYLbbrMN/vfQQzj22GOral0Zdva6uEQbb9Qb/kkGrFYnMjtahNRl97AGVyXOOf0UjHv3fRy6LdCva0fs2ywjxfeSLJAXyhNiKKNrpDFEGjRCfkFD+PyseJCFP2pqNv1U1K7oLGekjWRyx0x0H1XgaXaHUbGqaVkO+905icDzJ8DKmpYm44A0DCcg6ZzFcjh00oeYg5OxkYQflZ58eIu2w0sfT8XdT72D5Sk/ViU9uPnWO3Hd1f0FrJwABGvRbFlAtVpyG77O9Mp6kMAPP/xgn9H9DPzw/Q/CgWK6ClvG09FOAFufOlT1MKx6u6Wj8aw+HN9V9jULiFbGcPZpJ+PTUe9h/62AvifsgQPbBJFa+btwnTz+IOANiK8qmbEkxSWSV4BQOE+4UZaUqqHZ5EUqQ6e30/1G/k/fz58+PWvF/cX8+7ML3Rmik0PobCTH/Ft9lhNVdOgcThTSlMypom3QBPWkkCxZCX9RU6SjGSyO+WE1bYfrB7+I0RN+RjrSEGlPAO+Nehud990bXn+2MqqA7ZbVbEI1q3rbgrW7sTsXbMmSJdKai2VXSFVgVPD444+XmuxurtS6alHVbgSb7mwDVsYDVgVWWcCqLC9Hz7PPwEdvjcJuDYHex7fDUbsUwVu5RLhIzEVMZmx4vCwX4xWNjD4pnz+I/IaN5Cf/eX0BiTASrGiRGX5XTU++Ol/QvJttSZ/90yhJDsHB9KtxNCwHtRwDkQx91sIynLPVHDcgQDs0GYPFttO8MJlB3NcQ8byWmLHCQv87H8WPi6KIZSz07dMb/xv0MOxkQqqnkp6RyoDcri1mD28xD7rptmLtP5nAdfvtt0sjUEYEya9iUvMLL7wg6S6Gb1X7O2+OVziokWVXVeGHWZiJlNPAofcF5+DVZ59DGx9w0QltcVKn7WCVsmFEEpYQMVeDiaMreWFxQ7MNfTCEUKQA4YjDQnf69zmaESuFkhRancFfRWfIFhd0I5uMmK9X077MmFc32spGBl39Ct36Ge+RTLLjtAepsmL4GjdGqjyOaKAQqSbt8MhLH+CZUeOxKgkUNWuJ0e++j213aAfLH0LaI90St6hKowpWm+P+BdidRigMLI5HfhWd6ySHMjL4zwEr4x1yvEZuZce0gaiMJaRzzEW9LsDzTwxHEwDnH9MGZx7ZASiZj7BVCW86Jo50ajGsPkoAIFCR00SwkmoJtiUgRbBiNkA4FIYnGBRfl1Pa2HXQTDT8qaqGFM5rVc73rMPe9CitiotWeeAdM1A0YRPhFNvWiXaKKWh54A3lA6kE/IkyIOQDKqMoT/tRGdkKPy1L4sq7n8LPy53KEE8/NwJdT+/hkE1TAMuBbUmVRhWsNiOwchdgo5OdeYHkVpEgykV/3XXX4ZZbbqnqIyjmR05bAatZVk7pu9X6i+TlZbWfWCyBRwYPwqB7bkVsRTmO27sB+nQ7EvnJZSjIrEIYceFTpVMJ6SMYDgWRSKZQWlaBUF6B+KlS4qeiBsXy0B74pUOyH6FGRWD7eKdstK/Kr8SoHWXryJ6/O39L0rUxBaW6hfPHX8rMCGWChQxTco50jqZDX7z6TuI2LB/KUx4kYpVoYMWQKl8JO51AZcrCkngAeVvvhvtGvI0PpyzC4hhwTs9zcc9DgxGI5KE8BoRDClab0fbdsobi9luRHMqyxrNmzZKNRHIoa12NGDGiqsTKX5J1q77ec0VuWU6VVOZcTc2UBBiJelERcQDi1dffwH0Db8aiWTPRIAPc2Oco7NYyAm/JPBQG0wj7LGQSUaTilUJFkLI2Xh8Sacd/xYRo0XWoEWVSsFNJpCivUD5sj78KqHw+pxyORyqlWtlaXHSOE8h8sARoDGBlx18l7tWGYNaR5ZSgYf5hKiUljEnolJ/plEQyy9I+AdkGnjgqVixC2GdL6ZkFKxPwFG2Hr+aW4Kl3JmL2UmDXzh3x8puj0bRFM9EYSbXakrrjqGa1GexrU4fdDIUaFp3qbBjBigsmqZkNF55//nlpq1VTvajN4FFqOQQDVk7unaEumEqh3OixWBLxlI0ly4tx0QXnYeq4j9HYC+zc0sK1PbuhbTiK9MoFQDKKfHKRrDSS0QpRXkLhCOKpjJiA4seSRGlGAG1pAsGTSCgV/1aV38qAprM1/AGWnzGRPAe0DB1CvF4ZB1RNVNDwrpyfWe2QZh8Ts1PJ1aCVTgkpNOENiemaT99bvBwBK4VQJA+lKR+WpfIwP9kQNz/6IeaWAa123gXvjx2H5i2aIJDbKnUt14lzuoLVBomtbi+qXhWS4MVvd/qoCFisyU5zhIXv2PjU8K1yn8KwGqyc/DnTMIJkKCdRmAbUr/P/QMOmLXH/vffg7ltvQNMwq9UBZ3TZCmcf0QGNPRXwpuOw46UIWWmEmZKSTqIiGkUgxM7IlgCWU4EhIyxwtoSQJhpMZBZNqZp7PFvimCVfHJPQMQMdoDK2nwOxVbXbs+EBApfpuONkGxgTUNpuZc1Bh02fsLyIx2MIezMoCHqQqixFihyqcCMU2wWINm6Pnrc8ix9WAq122R1jxo5DUZNGiPgty04nbMu75aTcKFjVLe7U6d3effddm51omA/I8Dx7/rGJKX1X1SuA/q0P3mTm4xrAiiYgk4/FDvSgpDKB3xavED/UzddeiY9HvYXWDQCrFDipA3B0xx2wR/vtYUdLUVG8WPzU4ZCTliTNJISx7jQzFU0ok4Sdiou2w1y9mn1SToTQpMasJnQ6pqTzTe9ArAGrP70igOUkVMv72VI1qx3sWf4ViyMmYlJeJuC1kY5VIJ5MI+PLEwrD3ERj3DhsDGasBJq374D3PxyLFk0aIeyJOvQIX94Ws4e3mAf9W5t5I11c3RycMGGCzfbxrLJgnOxnnXUWI4UCVlUF7DbS+Or+Y1Y72I0m4nCsaFplfVYpG8tWlqEybSEYCmP6lIm46erL8dM336F5AAgkgI5tgMMP3A777dYOhcEMUmXLkYmXIeSz4PXQ/HPqJfOnoYM65qCgocu175SENlSprH2Xfc1ECFfTHBxLLPsMWU+7LZpaVXvTrMjM0znnipOdDHZpHhGXz2c9roooeyWGpZzMikob6YZb45HXPsMH30axGECLdntizEdj0aZlITxpdn1Ow/LnbzF7eIt50LrfaHV/R7c5WF5ebjMvsHv37pg4caI0kWAJYpJD2YLd5AiuqSJn3Y+uvu5Yk1pnQAxIJVPSa2/xsmVCHWjTujU+HfsRbrhmAGZ8OxMNQkAgDRQGgS57FaHroftihyZB2Kv+QDBVBm+yEnkhv9yHZFFfIIJE2kIibbNfH5LJcofBTtOLJponC3CsF5/Ill2u0qOMPuXIguZeFU/LFclkh2mLWo/QFshUcHoYijnodcpTS5OORBQNvI4fKx0oQIUdwio7jEx+CywotzBp9h8Y9up38Bf68VtxEldeez1uvOlm5IUd08/OJG1NZK6vdan3XW8JELjKyspwzTXXVPUSZESQTTTZUos10U0DUtlCOU1hWLNYuMnZn5DcMtNVp3nz5pg2bRpuH3gHvvhqIhKVZWCr1pZ5QLsmwKEdtkWXvbZDqwIP/PFV8KajiJWvEg0mEsmXCGM0kYLX75PIIFnwXgKI1ItnriA5THzNKR1talaJfiQw4XzHiweM9bGyX/li+DG9Jtt3mS+bktEEWpaJYY4guVlelj5mgdHylcL9ivsKUJIJIxpujuJMPt6b+D2eHfU9+GDLK4GO+3fCy6++jtatW1cpGLFopR0KR7YYhWOLedD1RonN7MShQ4fal1xyifitSA5t3749hg4dKuWO3SD1TwUrggU1TP5kVJTARc2EnX9+/OkXjBj5CsZ+/Anm/PQd/EiAvvfmIaDDDvnYqXUj7LNTa7QpiqBJngfeZDkQL0M6Xg4vUpKCk7ZCUoSPIEUfls+T5WARjNKM11U/hCCVfVFc944WZQw+V/lkmp0kqNJfxlQffh59ZKlMRvxv9E2Fw/nSZCLlz5cqC1N/XoSPJs3E9Dk2itNAJYB9O3fEwLvvRZcuh8rHlJWV2VtigwkFq80MnKoPh072M844Q5zFbMzADfvggw+CJWTodDcRwX8yWBGkCVhS/TMQENBmzmQwFEF5RQITJ0zCC889i/HjxiJRWQornRFmN3s/ty0CdmwVwK5tm2H7Fg2wXYuGaN4gCG8mhkS0ArbkzNhVwESNioAlPKhEXAikVZvEVTXB0a9oPiaECmHkL9FC8Y8xAmkjHMlDLJFGIsm+g7QDfVK+hoTUjD+CCjuM35dX4P/ZOw8wO+rq/b+33+2bTQ+EAKFDIBTpVSIdQZqgNEXKX0BAVEAQfyKCCApK7yKgFKkRkQ6KSEnovYUEkkDKJtvv3jb/5/O9e5bJZTfZcnezgbnPs8+2me/MnJnzzinvOWf66+/o1ffmaeYCaWaDS3aqZkSF9jrgEB36vaP1tc03VyZLj660ysuSak+1Qc34SunvV+pihzgudXl606ZN8w455JDOCcgA1Mknn6zzzz+/I8ZSePd/WcGKa/v000+dC2jtnCmXIeGQSbepPBlRZWW5Zn0yW08/85yef2G6pk2brvfffV/ZVJvKaLaQkaoBrpHSxNFlWnX0MK08apjGVIW1xuiEhpWHVEbpTS6rVFuLsmkm2+SdGxh2nURdhMhXsvy5ZUWQ24L4BbYDNYkRRzhtz+YUisRdV4hYotwVHze1prRwcYNj1zfmE5o+s0mvzpint9/POoBSTMqEpU222krfPuz72mf/g1RRzdkX6A8cmTsOZysa++rQFj53vldELf6KnPPMmTO9o446So8++qib30eQfcqUKbr22ms1fvx43xv9y/veYQgrAIUVCVmWTCik2NqaCoW9NjU2LlZ5Va2qaoZrYUOL3nz7fT3z7At6/rnn9cqL0zXv45mKejkxmY8GB1hddTFptVHS2DJpTI00akSZhtcNU011paorK1RVUaZELKZUm4OQz/n1nweoOguCsPggIuRyzCAMO7BK5/Jqbc+qua1dCxuatHBRk/u5qS2lxY2UAskVKL82jzmCKtT6xaSdvrGzA6htd9xZE1af6JICWGWJeFjpdE7JeESLFtZrxIjhX94b3o1uf+UueEXDuIaGBu+Xv/ylI4MSp1m4cKGLW/3lL39xY+UJ4H7ZLKvi/CDuLzMVsaYALSgbuIKOv8TAUdfXPKm2N4ypvgAAIABJREFUVNrFgUaOHuN+ZzrQa6+9qpdenOZAa+aH72nuJ7PU0tQsknGAFjGuBFU3cam6UhpWk1R1ZbmoX8bCwi00q6qQgvvcxnLkT3hU4YjL9gFWWFa0qnFglUqrsaVNixvb1NAipfEaQ3JWl9U78/vkjSdrm+220w477KitttlOI0eNdP/PuHoggv0dAf1cgXoRixb6WLW2NHvlFQF1YUXT6S/N+VJqg0sXYzJAYbqyhxV1wgknuHYxKC1tYii72WSTTTqHew6aG7gcCKSAFTEr4lU2zBWCLJQG5vNFIjGlUm0OMChibmtrVao9peqaakdPIFG6aPFiB1yvvv6a5s2brxkffaTXXn1Vsz+aWXh2HO+p4GYVqgILHwuwd/VW7+wZ0bERWAX31E3BzuVcqU+hQR+k1Eihm2AooooRo7Txxpto0qQNtME6a2rLzTfT+uuv4wDS3B0DM/7U2NCkmpqqQpuskL6S8arADVxBIG7q1KneoYce6uI2WFKU39B9gfFcxLBQYvvYMImC/tGh8ov5rBXksjtPE7evvr6+M7DONfK3cKxM7V7CgQGTlSFZRrysaxfMsC1+hzfFthQgV1ZXK1lRqYamZr37wYea8dEszZw1R5/Mnqu5s2frs0/nqqlhkeoXzNeCeZ+qqrLC8bPaWlsLbYg7BrFyYnEGd+SybgiE5QdtwDT/TyZiboza+FUmODLr6HHjtPrENbXy+Alaafx4rbX22po4cUKnhWVg6NbyDXu1eNkX7xlB/aBT6Ir2LH/pzxcmO2D14YcfuhgVgEWQ/Ve/+lVnhswsqwL5sOMR9/28IguJwDqxOnhmWC1cn5sGjbvFOCvGvhPoVtZNqwGsmM3MCPoC54nMnFxnTQZQkIlLlDHFOamqYdWqr2/RwoULtGjhQlwr3XHbX3XX3+9Q0+IGJ99EIq7ddttN48aNc+PhbVgH7V/qaqqVbk8pk0m7zGFZMlkAqZVW0pgxY7TKKqs42kltXZ3qho9w3R/ovADy0RWiMHq1o2NMR1vkArOevxbOvTDaa0nb7qsGVIFltYJo8Keffuodd9xxeuCBB1wzPsiigNeNN97YWSNoFpQfrEp6ecvB/bPz55oaGhrcV4eLXKj7o0NoiDHvHSPiO6ySUGdzqcLE5XCY1i4xNxA1mytMzSHehLWVSrcpHCk0yKN535jRo3TOr/5P1193rWinDCiut+66uvzyy12MkBFfyWRZxzg0dWQpiZvhukc7Y1ydPau4CFeP2OHYQW3gR3w+N18r0jnR+YtDUj+/g8ZU/yqPkg8C7CXV6NIvlkqlXAwLK+q8885zb2tS+XQMvffeezvLbkrq7i1HYCqWoIEvVhXWFeABx4pPLtOmeAiawedtjTunHzsQIPgdLfCTcoUe7fF40nVRwDUsWEOU3cQdp4pWLXW1tfr+976ne+69X5XlCQdK+++3v664/HKV1dQULJ18XjloCfS9IoXnPhbBKrDYvWzakUzDsXjn2CxnIbkxXB3N9xx++dz0TovKpPC5egJWX2WgCiyr0mNLyVe0esEbbrjB+/73vy9KTT777DPR24oawREjRrhj+sFqxa8X/FyMBlZkAgErsoDE6Fx9XXubykN5hekX1dGDnS4LhXq9Qm9110XYjYzHqSq0EyaOhRUF+bOtqUnliYSzkFgz1daqww87VC+++Jrqaiu1cHGzfvXLM3XyyaeorLLKgY2XySkUB6RCBdeyo7ym0Am00A204MphVOU6GvmZuhX+QdkNBM8k63RpMkCqKvzjq+jydaVIgWVVcngZmAUfe+wxjyJmYjaNjY2aNGmSrr/+em266aadE5r9sSpT8kHLEg7MZRdsFs9zFhXXjQsMqEBfyLanlegc/15oyQJA4QW6uj03ETmraDymCBSEEOsULCpiWdA9y2mup5ADQTKMzz/3rE455RTNnDFTNTXVWrCoUffde5d22WVXV8/HZJmOLn4OZAArfwt3C7bnPeYEeopFYqGcV3h95BhrL2KOBTsMm4q+WpyL380rHk5hmUG/iCNfhhvby2cmAKteCmywNzcqw1tvveXiVG+++aZT1IqKCjEBh3mCroK/o2jWlLvwRv789g4hz67XIizM3pMjhGJd2ezEQt+nRAe3vKP9S0ffKCbiFOYCFtjegB2ghOwsSO8sHFe/l3GWFROw//THP+r3F/1edE6gtTEW0MOPPKJNNtm0Y5xX4fQdpSokOo46IefzWc8ysQUrtyBxrCIDK5+jaKFzJUOhL7h3bO/uY2ev0cIx/RlDd7+/YoAVgFWvVWf57DBv3jwPrtVdd93lqAvwrZh+c9lll3WCFYr4ZfwYCEDTgBRrjQchWaYJnGNdOZ5UwSV0X0CYoxsw+bjDVnEtW8IdwXnnFLohqQASAEO275ijj3Z97nkZUIS8yoQJuvfe+7Tuems70VKXjJixqOg4Sg90WrV0JjZ8L4hQqMDmzOTzHoH5QgeGz/N8hNdjRYDjByoDrAColgTrL+Mz/qW6ppaWFo8g++9+9zsXp1qwYIGztOjRjmsEgGE9ONejI+jbqUArilnVzXkCVhaTgyCKdeUAK55ww01BAFq8OCDACnOZwkKG0PYDNVydX8ccQKzRHFm6DnAB6GHHH3300S4WCP2gubnFtZU+44wzNHx4XSib87xox1DRTNbzYtG+9eUxQPqqWUb9VcjAsuqvBAdp/7a2Nu/iiy/WmWee2clk33vvvfX3v/99CbfGTqeQ2s93MtwH6TQH5DBmWQE0WFeAMy6hgbHr7unjlLlWwh04Yo3uACe/m2Z9piy7CCXkgw8+0DHHHKPp06c7GQOKDJb9zne+E+jJgNzZ3i0a3ITeyWu5bn3rrbd6sNZRRCyMzTff3AXZ11tvPecKorB+V3DAOFfLQQr+ayG+BGAhA67XgJnT8gOVH8QMvGyMu10C1hT7YK1ipRJcJ/PIvgDWQw89pA033LCz9MnKoJaDCL7yhwzAagV6BJ555hmPNscU6KJ0xFhwCw844ACXzcJagINkrVRWoEtb5qkW0zGwrAAs3EEDq8Kg0kJhN3/zJx7MHfSDFQBGcTjgh9uHu3fRRRe5nmGU9+Bm0zts1KhRIfhuyWQy0Jdl3qmB2yAQ/sDJtmQrG9dqxowZ3hFHHKGnn37acY2wKqgRPPXUUwvZLkiK4XDnTMEvg2XlvwZ/7Iq/G2Bx7a78psOy8gOTa9/S4RLb/gA6bp9r4Ecfq3wh+M0E7Pvuu8/1u6cj6TXXXINbGOhIyZ7k/i0U3Ij+yW9Q96adLW7KDTfc4LJVKCtlOJdeemnneVjdWmdguW8x4EG9rqUdzA9QRmHwlxZhWRHHQhZYSP74Fuv6+WZGW8D1o17P4lkAFZOvmXgNNYT/42JS3rTbbruFoI/E41+tRndD5gHwnUgAVkPxrizlnC644ALvrLPOcq4KAeDdd99dt9xyi/vdFLOkpTfLWT7FhdnddZKwgRJYWP7OE2Y1YYny5edYcWmAHWBFv7BzzjnHAR9/g3QLhWGjjTbqdAGLR6UtZ9F85Q4fgNUKcsvt7X7ddde5omZcFeIq2267re68805HaLSMl0296TtncGhxHYrdWX/8imv2B9XNmrLb2l0HCtYwUCP2xTzGqVOndo48o8f973//e7qzdupIsYVVPEl7BXmUVtjTDMBqBbt1//znPz0C6rgxgNVmm23m3EIsAYp9KRnh82UMsvflVvnlUJwdtN+nTZsGPUGzZs1yWUESGNddd51+8IMfBPrRF6EP0D7BzRggwQ7Usk899ZR38MEHdxIj6cJAN4bDDjvMBZmNEOqP15TkXIaWsdXjS1pakgF5AWa4ez/5yU8c2ENX4O+333679tprr0A/eizpgd8wuBkDL+OSHuGtt95y3Rf+97//OcUisAzrmrIbPn7Xz8pSSnoCX1hsxUQxQAz5EMeijInMHz8DXhtuuKGzVjfYYINAPwb24enV6sHN6JW4lv/GixYt8qAqoEzwrObMmeNGytPbyjhEX9Yawb5IvzhAb4BuPCxcP7KAsNatjImhsow6q6z86gxj6ItsB3ufAKwGW+IlON55553n/fznP9fYsWNdfGXnnXfW3Xff7ThDZLYAqyBmVRB0MTfLT23ACv3HP/7hSmyQo/UKC+JVJXhIB2CJAKwGQKgDtaSxqG+66SaPbBXBdHo8MeUGNwb3BaBCCUnlW0fNgTqfFXFdfyaRn6m3/O1vf+vcaRu8AfDvtNNOoYCqMLTucABWQ+t+LPVsDKz+9a9/uSnNlNgQd8EigMlO7MosqgGLV62YIaovyJUgOpwqSmrosgARFHlut912rrf9GmusEejGENON4IYMsRuytNMxns+zzz7rwIpe7Lh9KN6PfvQjXXDBBZ0W1Zeh1KZUt8Y4VX4+FsXKZP/23Xdf/fe//3U8NWYTEmwnu1pdXR3oRqluQInWCW5IiQQ5kMsY+dC+v//++x5xlscff9xlBJn6AnWBKc3UtI0cOfILp2NFvbiIXTHcuyJeGvt7IK+tJGsvw9orbpdjVueVV14pYn+APS4gvLXbbrtNBx98cIiWPGVlZYF+lOQGlWaR4GaURo4Dukpx7GTu3LmuRhDmOt0CaMS33377OfcFa4G/YXFZKj4cLnSotI+RIfl9wEd4Dahklr24Bdj9jHUrfIZbRTCdOB9yoGSJ/lXEqwJ2+rJlO9hbBGA12BLvw/GKyzwWL17suoYSHKbFCa1+Kbu54oorXNAddjtARWcBvlvbFA5t9IbuSlT6XqLThwsbhF3MigKs/KTZ999/X/DV6GCBnNhu1113dfMBV1lllUAvBuHe9PYQwU3prcSW8/YAF4ADMP34xz921gAZQRrwXXjhhRAZO1vEEDRGEa3bAABV3BfKb23Zz6UErKEQj/d3azBL64477tBPf/pTN9aMrCldFuBWYbEGDfaW80PezeEDsBqa92WJs+rKJbnzzjs94lQAEVYBZTdYWwSM6cbAh9IblNOsLIDLb2V1xcXqDsxWADF1e4r+eBxxKQAeFxDAt2aFyIqs4M477+x0Imi2N/TueABWQ++e9OiMHn/8cQ/mNVaVtT9BAbEMsBZMQY0EaV1EcRH5Mj5Wjw62Am/kByqoCSQgGK5BE0O6LJCgIM5HQTgxQHMBA7Aaejc9AKuhd0+WeUZYWu+++y5dAfTcc8855UPh4FnRlhewspIbY7Pb5Bt+B6ysU6ZlB4dCD6yBcBm5bq6ZjCl0BaxQAAuKAvWVtNoB8AF6+lklEolAJ5b5BC6fDYIbs3zk3uujFgfZ6RqKgl177bWdk1hoHcPvKCPxKguo2yQXq4fD2uBvfKGsKLNlxNjHXEF+LmX8qtcXXcIdPvroI3ctgPSTTz6ps88+W2+//bbLnNLPimERhxxyyBJdQYOMYAlvQAmWCsCqBEIcrCUMsFAiRmXefPMtLqMFoRGA2mGHHVyLY2IyPQUZtgOorB95cfbQ3xbYf53+3lD2d5vJV0p5dHcdltW0GFx3JFgC51A7iElhWRHbg1tFvAoLkzKbNdZYw400mzRpUlBiU8qbV+K1ArAqsUAHYrnu3vD33HOPx5ADlA43kAZ8TGMhI2i1bn4rqatzI8gOIFgBNGAFcNlACj9YWFaNv/UUDPsrDzu/YivPP1qr+Hw4T2ojcfmQC4CFpcnfAC3c5UcffdS5zwDYkUce6TKpAWu9v3drYPcPwGpg5VuS1bsDq6efftqBFWUixJzq6upcjSD1brNnz3acKwOY7k7ErCE//wqF5gsAs7l6fjexeC0DxK6sMD9zvi/C8JNWu3JPi0GT4wFANkDC2h5zfVzLs88+qx/+8IeutQ4WKEBmLmDg9vXlDg3ePgFYDZ6sS3YkcwfffvttDysBYiNWApaE1bbNmDHDxWeWBVaAkLG77bs/bmVDFsxNBMSKAWRpVlapLbDuqBVWmExxsn2ZVYYcFi9e7FzAX/7yl85VtsERFIHff//9rtFeUGJTskd0QBYKwGpAxDqwi5oFsGDBAu9nP/uZa8RHoJyMF0H2q6++2gWN/STQ7s5oWTEp/xr8jJL7gYsynlDo83HtdhyLaRVnGf3WET8vKwsJCFnGsivgA5AAJ6wp3DzLetp5WDdQvnM8MqhPPPHEEoXLDIotLy/v1IXAwhrY57evqwdg1VfJDZH9zjnnHI/MFi4f8Zmvfe1rrsXxqquu6lqeLAsM/FaUXZKV4tgMQn8toT++FY6EFQkXsorGkrcsox+0liaqZcXUugI7AMpGbnHN/G5fFtsqbu8MmD/22GOdWUDrsnDXXXdp//33XyILGMwJHCIPd9FpBGA1NO9Lj8/qxhtv9P7f//t/DjCwLnBrcHUOOuggx2RfVotjs5z8LqA/YG2kUn8toY38sq4MNrbdKBAW7+LvRj61NYuto2WBlcXUDKCwkPgysMKq8mcm/efO3zkXtoH8iVyYsWhEWmJYdArdaqutgsLlHj9xy2/DAKyWn+x7fWS/e2LxlalTp7qR8tZJAGWlt9Xpp5/u6AzW/bK7g/nr5vxAYiDSHZj5wcsf8zLLxrhdth3fi796QnUwYPRbT/xsAGUxt65iWXZeHJfrpK3OI4884oALwNp8882dyzx58mSnB0Fn0F4/koO6QwBWgyru0h/s9ddfdzWCL730kiM4ErdigARxLFwkA6BlWTClP7PBWdEAzw9W/msGpEg+PPXUU46h/vLLLzs5YXWedNJJIl7F9sF4+MG5X/05SgBW/ZHeENh35syZ3vHHH68HHnjAKSFZrylTpojGcl+F+r9lgRUuIHKBngAwUYpEfI94Hpy0E044IdCBIfAc9+QUghvVEykN4W3q6+s9uFV/+tOfOtvFbLTRRm70+Zprrtk5Ir0rImd3rO8hfLlfOLXuwMrcRCwrRmydeeaZrlcVBFpc5pVWWsnFr7beeutAB1aQGx7cqBXkRi3tNC+99FKPOBUZL0iO1i5m//33d6Um/tR/V8r9JRBBZ5cJuxZ/0B3y51FHHeXGlUGcJV4FcfaPf/wj8atAB1aQByC4USvIjVraad5+++3ed77zHcfQth5VNOY766yz9Mknn3xlwcpY+bDZjz32WDcYApcQIKPg+8ADDwye/xXo+Q9u1gp0s7o71UceecT1tiKgTpwK5Tz88MOda0ggeWm0gVIzzEspTh5O2sYs69NVJtCGRADgtIKhePmdd95xhFa6qtIpNBi3tSzJDq3/B2A1tO5Hn87mjTfe8ACnN99808VkCLLvueeejhzaE1Jonw7axU49BZfujtfX/bsCK6M3wDvD3SOGR1AdLtpxxx3nBpt29KoPdKBUD8AArxPcqAEW8EAvD/fq448/dp0EKCOxtidbbrmly3aNHz/encKKSF3wg9fSgKwYrIxfhXXF9Z944oluYjWxK8qQcAGPOuqo4Nkf6IezxOsHN6zEAh2o5Zqbm73Kysol6teMof23v/1N0BdwA7GksCrIBNI1dIsttnAWhXXMxO2z+jkjaXLOfoKmxXpc7V4oLLn6v8Khi91Gf6F0T1zK7hjsfm6UBceLs5Vdrc/f7ByMiGpWFefLNdLzCyCHzc5MRcZtIRfjVgW1gAP11JZ23QCsSivPAVnND1TWGxy2Nex0uiswJILRUsSryHShoKTmCbDzP1wfAysU2kpo2J7i3+6AiItZVteG3riZZgEVFzMbqHQXW/MLtSsLsSsWvpUA0faZMptXX33VXQsu4LnnnssIsy6f/aAucEAe4ZIsGoBVScQ48Iv4S0EALALFr7zyiutfRYsTfseCIkYD8ZHBEaeeeqorLeHv/ho6szz8RcfduYldleDY1XbXNcG/VnE/q2K+l9+iKwYzv9VULGH/eZkl6F/LenI988wzThZQOKB1MAyWwRDII5i4PPDPbSmPEIBVKaU5QGv5J63gsmARUYD761//Ws8//7w7Kqxs6+NEWQkz8Yhf8aHw19qn8DPbGYgAWOZ22en7AcW26yru1ZVbVgx6XYFTsTvpJ3B2J0I/V8zfFcKsKlvDXFybSP344487Ob311luOh8b1YHHSv56fgzKbAXpoB2DZAKwGQKgDsaTfsrrpppu8M844w3W7xHJCYQkcr7zyym5Q57e+9S1VVFQ4988Ay6wPvqPQBkLUEvpjRAWywOdti/3Wiv+6Pncdw0slGPitpa5+9gMkAGOdGuxnPzD5i6INBIvdVCvotnWgKOD2ffDBB256NdcLMZS41ZQpUzqf/+Ii5sAdHIinuH9rBmDVP/kN+N5YUgYmKOBvfvMbl4onmA6HCEsJN4/+6/x9p512cucEeFHAa/Gp7gLbcLJs6o2BmLVf4bh+y8tvNRlYdOU++o/ldwNtH4tz8bvVL5pLar2x/GC1NCF3VTLktxqhcxCzYiAEH8Add3CrrbbS7bffrnHjxjkdKAzhcINh3e8BWA34o93rAwRg1WuRDe4OFp9CwahvA5D4EFwHrLAU1l9/ff3lL3/Rhhtu6KwmU3iL+fiD4MXBbfsffzerxL4DYtZh00iWxeBkYOh37fwBe2sfbAFvAyWzkvi/7VvsMpqku5onWHwd/n2LqQwvvvii6xD6xhtvdHZPZXtiWSeffDJxvkAPBvex7tPRgpvUJ7EN7k6tra3eBRdc4Fw8i8UAKADYxhtv7HhDsLIBL8DDAMgygP6zLbZEurO8bB9zH/0N97qzpvzZPAMsoxN0BWb8rSvLyP7eXQC/WPp+y9P2tW2QAYCIFXXaaadp5syZzh2EOEvpDd0qAHtoIQGFYXCf694eLQCr3kqsxNubghAzQcG7Cvjefffd3ve+971Odw3lxPXbZZddXCsYuEO4fHysNpCf/cBV4tNeoZZDVsgWsCf5AKgT0yNDuP322zsgI/henB0MwGto3eYArIbW/cCt86wTAHGT119/3bUohkcFKBGLwlr4xje+4QZ1jh071tEWzKKwVsMBWBVuLJlP65ZKbSDkWXqxk3gAwLD8yA5idXUMl3BTbjos2EA/hpB+BDdjCN0MTsUf6J0zZ44H+/pf//qXc12wEPgCqOjNtPrqqy8xFstm5PWGqDnELn9ATsdvYSJLOjDMmjXLWaOA/1prreWyg5tttlkQXB+QO1CaRQOwKo0c+72K3+WwDCDz7SB2wqGywQdMr7n++usdUGEJkE0zkudXoTNoXwRt1hUxPtw/pgHhEiIvrFIAi64VtIL2u4J+fltfjhvsU1oJBGBVWnn2ezUro3nyySddgzioBVhTfFZZZRU9+OCDDqj81kJxkLo4G9bvk/oSLGDZTtw7guzIllIcXET+B2jROXTvvfcOdGKI3u/gxgzBGzNjxgw3XguXhdgKVhW1frh+X//61zsJnZw6yuf/FGfGBu7yuiIUDNzR+rqyP+HAGkaUxTqlQSG1lLiDvBB23nlnB1gjR44M9KKvAh/A/YKbMoDC7c3SLS0tXkVFRWju3LneJZdcIqgKNgCCHuL0piLQzsc4T+YC+rlSlu7vqhSmN+fzZdrWAMusUWQ0b948x7G67777lrBS4bEdeeSRQRnOEHwAArAaAjfFz5a+8847XVCdeBTKRUqdEfHErnAJASjLbhGLMdJl8WWgkDY6fQhc4nI7BQMqZIGsbBw9J0TdIL3Zaf2MGwjAM2yDljurrbZaoBvL7a51feDghgyBGwLps7y8PPThhx96ZPpopgdI8fY/8MADdd1117nGcRYo9rdEWdbpmzVhBb4oLIpr5SxGHPXHvfzp/mWtP1j/7y4OZxlQsyQNnJgTSAZ1gw02cKdo12T/p1yJxAUDYmH/A1bl5eWuIuDCCy90Dfs6Ylnd1g8O1rUHxylIIACrIfIk4AZS93feeee5QluUCWY1E4PJABJrsbHsfTllY6JbrZ8ptx+k/Iz3FSVIXxyTorsElueNN94osqnIc/fdd+8ky/oTE8iUYnD+T6Ez14yMATna7hiVweQdZAf78uSVbp8ArEony36tdP/997sx8CgLFhUEUGJXTK3hgxIa+dNcmeLgencnYC6Q38Lg5+J1/BZVV6U6/brAAdx59uzZLkiO9UmgHIY6xM8DDjiAuYDOcuJ/Ji8r0OaFwN8IqkMMRe5YtJTiEHynFrO7Jn0DeDnB0t1IIACr5fxoQFWAoMiAhw8//NApGnwggulkrKzg14DKHyzurvC3+JL8YGUg5LdI+Ju1ODbLw7/PchZRl4c3y+/dd991bjLARKtiO//58+e7vvQPP/ywpk6d6rKoFsPzW1fImhcBpUuMlqcrA7/jIkIT2WSTTQIdGSIPQHAjhsCNuOiiizyawVE6M3fuXO26665ujBbMar+FQ4AdKkNvGOrFMR27XD9Y+UmlBlLF7tUQENMSp2BgZR0VpkyZ4lrBQPq067n44ouddXTYYYe54RlYTXz8MTt+R64Ug1M3CEHUYoJkC3/xi1+wX6i439VQk8dX4XwCsFrOd3n27Nke4IR1BecHhSLOAs/KXBo7Rf/vPS1S9m/nD9ADeAsXLnSKictp4OS33Dhub4CxcJ6Dw78yPhnXhFX60ksvuTjTtttu2xlMnzZtmgMq3ESmMQNoxKmwSLFU2dc+/H2vvfbSf/7zH2fdWgICrlswYn45K0nH4QOwWo73AcoCSgQwYUHxxicbSIwFZSEO01V8yt8BtCenX+zambV21113uUEKp59+ulNQPrZtbzKOPTmHUm/jTxiQmCDmxDCIc875terqhrnDEZOijxWN97CS6FePTA2A7VrN+mRc169+9SvhQlpcizVZe9SoUYGulPom9nK94Ab0UmCl2pzKfsCJan/avPCmJ7jO7ygHb304VShWMZ/KXLWexpWKqQju91hMJ518sgNGBk9QytMVpaGn1zs49tTnZ2NghZVE3Aq+FP3oIXnutttuznpiGzhrt956K9OXXe0fAXcj1VqcDosV9xrLdu+99xZDJsgoAmKAGxbbNtts09lR1LqJ9lQ2wXalkUAAVqWRY486aLDqAAAgAElEQVRWsbgHvCrAido0LCmCuqTQN9tsMxcMHjNmjAMO66LZo8V7sJHfjYRPBCjefPPNLs3PyC4U3L9Nd43xenCoQXMIzToie0eMap111rHR8A6ASFIwfRlqArLF1bOWz2ZJmrtLYJ3eVliaxA6xNpEHo+d/9KMfcV869SVoe9zTp6B02wVgVTpZ9molOivgluDCQEbENUMhGG6AAgJU/iGkvVrct3ExX8qUmzgO2bKHHnrIWRzf/e53neuJNYFF53cJ+3rswdjPwJV+X9A8iFOtu+66Dpgo+AaUceVwBZE3U3+sAsDv6lr8iu0BNKw0yp0ANvq1M74L/hXyDCbiDMad/eIxArBaPnLnTe+hFHQAACBQLPg+m2yyyRIZwP6eXnFhM8qNVUcWDXY8Fh3EUwLRBpIcc0UhhXKuZPMAG9w12r8wN3H//fd3/eoBHBruXXXVVc7F41rJulrcz3+dllwgbkXROLErsovIhfgeAXo+AVj196ns2/4BWPVNbn3eC/cBdwv35IQTTnB8HgLB9FO66aabnPuH+9Id5aAvBy5mbbM+x6IJHeO7IJ8CnH7iaU+zjX05ny/u0/eIl8WfrDEhMwL//Oc/OzluuummzpJixiJxK0pvsCKZBGRxKu4FYId1y1rsx5Trgw8+2MXyACvkgpsMvYFsbUdf90B3SnPze7xKIPAei6r/G1qDvQULFnj0U4JljetFbIQ3PpaOxVNKyXOy2JPFwVA+smNYGzvuuKOrhSNeZoH4wWsz03+ZmpwIjiNLgAduFLE4fp48ebIDoddee01bbrmlS2YwBQiQ8tdFcs1sZy4wYAXIISvY76yFKwioI6dEIhHoTv9vX69WCATeK3GVZuPHHnvMg6GOIvCGh10NhYG3e+95TUs/p65q/1Bc2qDgCjJO/fe//73rl2WdRrsOrPfd+imN1LpfxaxAXFpKZQB/LFeuC3ePD3KlewVuotE0+LuBnQG0bQtQ/fCHP+wsKmddXibUG/oD7QN9bcH6n0sgAKtBfhoYCIFrgquCAhFTwXUh9W7BYnPHSlGf51dGy/ahyGS4OB5Tc4jtcCybkGPK399s4GCI1loVc87IjWskSM71QPCk3ObTTz91MUESGFQF8LGYlT/ram6gdQ6lwPmJJ55w8TvuFS47L5Uddtgh0JvBuLlFxwiEPshCf+211zzq0HBbrDslmSqyf/43PqdVCrAqJoTSu+nMs87SX266yVlyJ510kmPMYzlYOUpXbWMGWUy9OpyfbgErHyDCVQNcoCAga8Bq3LhxS9AWuis5svV+97vfuSaI9fX1zhVkHZIgWMVBkL1Xt6gkGwdgVRIx9nyRSy+91OMNDzABFtSzEWjHKuDtDWiZtVAqywbrgQ8xHQiPlKegkBBByXzts88+neUlZAoHguPVcwl9cUsDXANRG3PPuXZnBTIT0D+e3poWWkyKo/jlW5z9RD7EqcgAMsmZD8eC7sE9Gzt2bKA7/bmpfdg3EHgfhNbXXT766CPXBgYuEG9/pinzpl577bU7lQHAMgUsRRM8f7kOWUdiNqTlsSp22GEHx+tac801HZ0BSwQFH0pgVZyVBNSNg0ZXhIkTJ9LVs3P6Dxyqf/7zny4Gx5Rqy6ra2Pqe3jtzCaE9cI+4LwAYAXt+32CDDYIJzj0VZom2C8CqRILsyTJTp071vvWtbzlQwO2C20S5ix+Uil2Tnvas6u74/lKdF154QRyfGA7HIV5FJhALAjcHJj2f4p7lPbm2gdqm2Lo0IF20aJEjskL5ILOKnCzWRwtoymuOOeYYB77FSYvuLNauuGWQZklGEAfj/8gGwuluu+0W6M5A3fRu1g0EPkgCJ7BOeQt0ARQIYCAmgiIQCwEs+AxUvAjQspYpHAvLAXeGjBdxHdjZBNj9hcylzkz2StS+5KPJxLqAIj/aFh9yyCEOfGmnA4jwwc0jzgQw8x3Q8ndFZZvuhmlYvaF/AAfrMvWGYD0yIiZGjI9YHwM+enVNwcb9kkAg7H6Jr+c7P/fccx7KRTdK3DHY1DSNI6hd7KKY4vXXqjLwYx0a+2HJ0WCOD/EquF24Sriko0aNcmUopsh+gmjPr7IXW/aCCWGWHqDFF6RWYm90VABg77jjDkduxerCnQXIzGqEmsE1+bljxf3a7awBK2toyM8cC5mQOaW+EIIoriDcNCzilVZaKdCfXtzy/m4aCLu/ElzG/kYE/cMfLvZ+9rOfuq1RKOrUaLhnoODveFCqwDq9pbLZnAPDBx54wLGyUUbAkiA7jGwL5tPTiv8ZQA44WPVC7gAHgGVTqbF8cKO/+c1vOq7YFVdc4borGJsdQKZAHEsWC4hrsi4M/u6qNtHawKzY6rLExLPPPussYJjtWG5YplAiNt1000B/enEf+7tpIOz+SrAHYAVdgPgJ1gDgsPnmm7sgN8Fac11w04otrFKAFgZMqq3NZf1wA7FKUDiA8pRTTnFjqLAYmE0IGNgxS3HsUorWSmJY09w1gIgeVAATriDBdkANl42iZtjmEEPJvFoW0H9dbNtVTMvOm20BbSwsCKE04mMt7hVB9kMOOSTQn1Le5GWsFQh7EIT9j3/8w+Nh50GHs2OBdXNv/Nk3y17ZafV3WCmKRb8ngtE02gMQmZpDVhB3BrcGS4WJOsU1iUMhK+jnmplsrEMCFg/1jcTczj//fEesxWr973//634mLkh/K74bh6245rK4rMlccOt9z/GRGS487WOsltM6OARxq0FQoI5DBGBVQlnTUK+srGwJmS5atMgF1rGkCNDy4UGnOyifUsSlusreWRYQwCGojxUCW54sGi4TwX0C+yglykzsh3MZ3ALmngnfH0tiD67XWOWAFbG/CRMm6LbbbnMxuLffftvNA+R6+BsFzP5mhr2xGm2YBmBIpQGWFusC9H++8c8av8r4UNDbqmf3sb9bBWDVXwkuZX/Ai6ZvlG1QoEychRmA8IBwu7KZrKKxQu+ovn6Kp9WYMln86c0333TtUj766CMXSIfTRTdSuggQu0LxASsbVdUbRe7rOfd2v2JKAb8DPnwhS8AfgKI3GMFwSpkYUkorGALhFDCby+ePWfUEmI1WQswPzhVtY/gbMT4mN++4446BDvX2hvZx+0DQfRRcT3ZjKOZFF13kpqbAVsfKIXbFpBV/DKYna3W3jV/h/G6bTRzmWPCOsOoATIALq8riPnwHrPha2gDU/pzjQOyL+4plSJwNgMK6gqbANBtIt3RIgBvVMfBhib7rZs122dmiKEtpbiOxPQL6gCIfgJ/ODocddligQwNxg7tYMxB0PwXdlQtg7uDHH3/s0Q8cq4bAOi4Kb3qY67hfpbJiiq0rU0K6XVLHRjM6LC4sDVxSYmbwhTgH9oU+4R8CaiIp1fn1R8TFJTF+agVgZGUxADKMdtj4XCvAPH78eAcoxOgsBuUv7Oa8ehITtFKoPfbYQ48++qhLSHA/6eJAO5qqqqqg3XF/bnIP9w3AqoeC6stm559/vmtdjPWCBUB2iiBtqWfzsT5veqw3FBjLgeMRz6HJ3ujRox1gwe0ia8b2KBzn4XcDe8r07oss+rqP3/rxu4NcA9apubLUAlJj+fTTT7tr59pIIlCHiVVZ3H2iN0XiRu9gfbhptj4vn3vvvZci6QCs+nqDe7FfAFa9EFZ3mzY3N3uVlZVLyJLuClhVKBPuCrVqlmYHWMgqleJjSmi8KLNEaPuCFWUpezJ9uKS4gbg0NjkHgMKqIsBufKOeWBulOPeerFEMVhZYZzxh3su7GBKgBYCQFYS5Tj/27bbbzvUJsxKi4sqA3mQ6sd4gh9K4D5fTwIt7++9//5tjBXrUk5vZz20CIfdTgOxePK23vr7eg9dkPcBRJrJHvIUBCX/lf38P71dmi4MxNYdx6oASIIWCQwjFygOcSO8DoNbsD7DC0uIzFFy/pcmkONgO6AD+uLUAClYUbjcBcOgY9ikuI+qNZcW27P/44487a5WBtKwNDYVs48EHHxzoUX8f5B7sHwi5B0Ja2iYE0ZPJpJMjbHUealjV9KxCeVAiugLwUEMGtaZvPclE9fTULL0OEJH9O/zwwzV9+nSXcQSUOP5f//pX13iOImZzAVF8wAyrCuDiU0wT6Ok5DPR2xbEr+x0rkCwr14EFxM9YU1iuyN94Upyfv6NET6/Tf5/eeustJ1sC+MiMuBiUlOOPP/4LehSMmy/9ExGAVYlkCmhhsdBaFx7Tk08+6awY4ke4XszmM8Wx2NCyWsD42eQoTXdZrIJLE9W8efNdyp5aOZQVYMTCgCMEVQFFRqGxpCz9D/cKoPKPp1quBcy9vB9maSEf/8euoRQurd0H7teuu+7q7q1ZVtAZKGyuqakJWsb08t71dvMArHorsS62N6DCiuGtS5U+YIECYd0wImqjjTZy4AGg+YcVLOvwxe6Kv8iZ9YxPZfPxaLuLm4n1xPlABgXAzKoAnIi1AE7EuVA62N02ULWUFt+yrq2U/7dCZbOgSgFS5hb7g/OAPi1izLLCvcbdHz16dKBLpbyhXawVCLgXAraiZP8uUBdM0ZlWQ5kHmTesHSwYavCs3zmg4I+59DQ+hLLwVreSEdvPgIwgM9NqACqUlPOxLpfwrAAkQAiriv8ZU511AVNcKLPaenpOvRDboG1aHM8q1YH9ReZYzWRYkRky3n777Z3VPHHixECXSiXwbtYJBFwCAcOrIqhLnOrjjz92vCUyRkzyxaqymjubTWcdBHqSkSrexkpNsJ4AMICRwDkKg7Li9gFesLZhdDNii20ATtay/uKsg3UFkFnnTbMk/P2fSmWh9FnMvWgl0+djLGNHC7AjJ7hV0D8sc0rxND30119//UCXBuoGdKwbCLgPAsbCAhgYGtDa2uqGltJbCdY01g8uGf2V6DIJF8dcKwMei131BAisTITjmfUDSOHCwS2CR0SWirc89AjGwlNSw9ufc8BVBKhsRBXASX2g9YA3MmhPG9T1QVwr/C7cN+tthaVKphd588JA5hRLb7TRRoEuDfCdDgRcAgH/9re/9XD1AAI+WCsEtWm329XIpy7LPHznYe6MxV/4jkXEWsSc+GCx0RDuf//7nwvkE0NBgSja5c1PYa8x1NneGNx8t7gXlh7nWgyaK7IrWILb+YUlkJcRe8mq/vjHP3bWKpYWE3MAq8mTJwe6NBDC960ZCLgfAm5qavKwppgDSDCbNy2KTpyKCn3/dGWAxrhMXXVJMBes+Hsum1WoY+oN/6NwF3IiXCp4PlhIBO2x5lAchnBuscUWDtg4FwL9ZCixsnBNATQAiu8An7VT7ocYlrnrEPDkuj/HHp5cPpdXOBJ2JT1kAHH7caORObHCjTfeONClZT4J/dsgEHAv5OevA6SnOvEpMn+4VVbNT+sXepvD9SkO+Bp4GSB1ZdH4s1r8DADi8mFB3XXXXe4tznGx4tjfemTB4aLRHDEUtuf/fMciMBoDrgzbA2S4lNTOfbU+PUSmLoSCK4i8SaIcd9xxDqx4SeAGErPaZJNNAl0a4IcpEHAPBOwHKcsIfvDBBx7lHJR48BADKjzEdN+kYJiPtc01cPITGfnZiIkW0zIaglEb2J+3NgCFJWVZRtw3oyIAPHTFZPADsSoAii/Ox2rYDBSt0wJ/x6Ky0Vs9EMGXfhN7SXTFMbNYI7LGsoIOwgsDy4q6S/7GaK4vvZCW8wUGAu7hDcDl400KCLz33ntuBNQrr7zSybfZZpttXOsVMoAW48B66Q3BEjChfzgsdECK7wAPb3E+uJHWxgXlwkoiVsYxYacT17K6NbaDT2WZPgNA1sHqAqyKJ0D3UBRfqs2645UVU0xIamCZQril0wKVADwLUD8oo5o0aZK770Hn0IF7PAKwWoZs/eU0bDp79mwP64mH1npEAQRYKbgEAAoAQ4yIRnuMLfcHt/2HYz8Ahh5JTL3hbU1JB29yfgccrd6P+BJxKQCItzkdFJjcsu6667rt+Ficit85pn8SM/+3LCTnylcpaxQH7hEd2JW/WCOIxet1uvUcHaCy+CAxQetHhnwZFEvbn/Hjx39Bl4IOoqW9dwFY9UCeLS0tjvgJVeHpp5/2tt12W2fhoOwAjmXisGr4mPsFcFkAG/CwHlb21jZAAYT42fZnbRuLxRrUF2IBEBinlztuHyDINpZW57hWMmO8IH/JibmAWFXE0yxz2YPL/8ps0lUWlhcAX9BECKafccYZnbMfeSnx0mC6Tldg9ZUR3CBdaABWvRQ0vCriR7QG4Y1KzArrB5cK0AJwADArq+F3q1sz8PAPJQBsbD9OxT8Ky5Rnu+221T777OtoCRQl43qgKLzxrRiZY1pA3YDOmNccjy8bIwWAsv2yKBS9FM1y3rzvwXNOvDgZwu/IB34acsSiJXlx9NFHOwKuFU4zSAL3PwCrgb/9AVj1QMZ+V9C6gBLDAohw4YhZ0PSNB5qMH4FwrBs+gJaBSjHx0g4N4x2lMIAD3AAc6tAY1gmYEbQ3i43/88X2KJIF61nPLDh/rIxzYRsC8wCVWVW9aZPSAzGtsJt0VabDCwiLyl42ABeDYOmyyv22gafEDLG2gljVwN/+AKx6IOPuYg8AFrEfAIMeR4ARIIHLYLSDN954w8Wl/PVlVjIDbwf+DsBD0ziInlhHKAof+FqUzBC/srWtJ7gBEMdHofwWFvtbOQ3rWHkP7p/1sOppi5QeiGeF3qQriwqQ4sXDfTPr0+ozASvuFaDPi4mGhmRii6cardBCGaInH4BVH2+MWVjFQGY9rRKJRKjYIuugE3Qp8yeffNLbccedVFlZ4QAPkikcLspmACNACcXiZxvaafEqs8jMysIqs3iYuaDsQ5Ae68xfX9jHy/9S7maAZH3dbXwX9w3Zzpw507X/YWIRyRWC7vR4P/TQQ7u8p10Vvn8pBTdIFxWA1SAIGkDr6IbQrbzhbZHdgw5BTIqgOpbQueee6wLqZj1ZjRoKhXtoAz+7uwy2x5oC7ACsrvqss29P6hS7CkAPtPh6E4nqrkxoad0Y/PsgY14SWFbIiR5hUqG5HxlYSLlMz8FytmGnDFTdZpttOpsvxmKxoK/VAD0UAVgNkGCXtmzxGxcwA3QuuOAC5/YZoPBGZ/wTrsbnzeVCisdjDqSMNb+0YxFbIUYFUPljZkaCLB6y6gekYhBbmtIvBzF+4ZDF7H828Le+8ZNybWf+ZrEpXHD/9fMzYI8MeXEw1RpX3UjAcKuYUbjuuusuAVZDQRZfxnMIwGqA72pPXAFzF59//nmPTpR8LHYFX4taQIifuB0AD24eYNWTRnm4fmxvtAa/khoYmYJ2pcwDLJ5+L78sa8/fQbQY3M2tJsZncT7cZKvxxC0ErIxYC22E8WYAPzEtMoNkAocNGxZMZe73nVz2AgFYLVtGg7bFqaee6lHfZ3PpUAoUhqDuhRde6GoQjd9lfdeXdXKAVAdHrFPp/Mx6U2azunriDi7rmIP5f//5d3Xuxa6hWUuAPXEoguRL+2DlIkNKnrB6qSbAyoIbRzzxiCOOCKyqQbrhAVgNkqD9h/EH4fkZQIKiQJEssSrAxGIiKCPM+Ouvv94NR0VJ+BsWVk8Ay7KHWAsGdCgfQXlArDtwMpdqaeVC3cWIloNIlzik31K080dmgBMghduH5WrkWaujZBHjpJnVSWxw1VVXde1+KFi2FtDEAblfQdO9wbvbAVgNgqyX5grOnz/fo8UMsQ9z74x3hWKgUAAKWSjazhijGjY7weDimFPx5RQPUrBiaWtvbEF3PyO/JyIZ6vEruwbkZ+O6rL7PsqFGLzGemt9NNC4b9wRaCu2qmUfISwQLl97rV111FV1hAx3qyQNTgm0CQZdAiMtawj+WyU91AKhIfdPMDd4OcZAxY8Z0th9GuayBHuU1uIi0KzYqA9svq1DaH1S3khuzGjoylJ1TeMzCsNmGrO1n3w9FF9HvBpo1aODDdyxRiz0VX4uBk9+asjpOW4Ms4GmnnabrrrvOvTSwtLBKacK33377BfqzrIe/hP8PhF1CYXa3lB+gLJhOvSE9qvbZZx8HCPa2542NS3j66ae7YK7Fr3ijH3HEETrnnHMcqBmpc1lg1V0GjHP1vLzCjDbmZ4WkUFjhSGEIazQacyBWXl7IIhozPtTHJ2bJ3QrHLHz6uKBvBa4R+WFB8YWLx3eTaeeRQqFOt9eAm32xKq2bhXXMsOuFkEsgnVmQxvynuSElN/6x8RyjJ8mUQXjcvrSH6P+T8qUVTekvzE8SffXVVz1oCdQWohi8sWk7c/XVVzulgM+DJeUvwaFZHvQG9nv33XcdydMU1eoNLTaFMvoHfHZ1NWHlFfEKZUE5RZQPFb4ALgdepP7DBQXnu7mKsXhckWhckUhYsciScOOHoc5jeoVtCquyhW+rULhLwOouZmbAbqBCFs9cNvvbEhnCcGiJw/nlYC4x1hckT+RlMT6sWuJSuN4UKluSgoB8MIW59LrRkxUDsOqJlPq5TXNzM2U5Ifs+Z84cj55IBM0BJms1ctlll2mdddZx4PDoo486SwpCIh9zP5igw8AC3EWUFCsCsLP4FlYXa1qh7dIsr8/BylNOUeVDUeVC2FoGIJ7k5TuhK9xhmYTCEYU6enV5+Zz4u1knEZf6L1hl4XBI0bABlQnRgKrDonPfPn8M/cFxfjZWvrlyBiidFlAkLC/vOdD2x9G6q8MsvpXsQ4yQ1s+44gCXdcvAmqLzKy8GgAsA23HHHR14rbXWWoHu9FMvert7IPDeSqyP2/tdhFtvvdU75phjnEIDOCgCbsWee+7Z2b8KEMKyYsyWdUywQmaKZ3ETUSJGb1ntoRFAsTbYn3XN4urqtJ2l4xUmGRcsqrDyzs/ji/91WEIdgMXfCoDwueVVcDNhwBemT/sLqa2zg//YZrEVHrwCYPljYX7Q4WeTUcGiyrpeU/bpLoZmbivfixMMxXIAgJCbFZsjM2KCFKOT+Jg+fXrnIFkSGvTA33333V2iI6gH7KMy9HG3AKz6KLje7mZgNW3aNI+2ItSXoRhYQgwovfjiizub5RkoffLJJ2JbuoeSlcIFARBoX3z22Wdrjz326GzSx/lYpwfLEKKsfpeo+3P+3EHrBKoOly1slpXvSXHB5w7MCIcjBdjx8p3WjR9wOtDIrVaIkDlkczDFknhpkaK1C+sVDmCWoa1pQMQ1FsCQjhKFK1vC/ethcA25Ak7W3BCQx8KidTHDQPjgIkIpwRrmiw+9zXr7DATb908CgcD7J79e7f3JJ584i4q3MwpACpxGftSc8buBC9+tnAaFIeBug1IBJBSKNsp0rKS/FW98Iy9a33cbNLFUnhQWknP7Cp+Qiy2Z21ewukJermBHdSi/nePncS17hCweBWoUrDX+wvELFhtOZ+E7v/M/1o249Qvb+z9+l25pgFsMZsWg5b/+4nUs44dsqfeD7InFdOKJJ+qZZ55x9wAXESuLygIyt1BG2I8awF7d/GDjfksgEHi/Rbj0Baw7A/GqP/7xjzrrrLOcAuCq0aMKFjQjyFES6zzqH2YKEPGWv+eeezotF2tbAo2B7CD91/mwJgoHmBF74eeluYHO2sH98wiiF8AJSHE2kHMBAZGC49bhsC1ZO+cDO1xGrCS3rwO2gu2UJ5bUCVYdQXzAKhQugGEurQgo2cXH3EAHpD5LyU9RKHYFl/a7H6zsZ2SNG022FesJoHriiSeWuBfQF2699VbXZx1go6MG5+SnpAzwYxQsX5K8cSDGHkng7rvv9o488ki3LQAEYFltGb/beHdcQBQ9lWp3wXUADPePvu9YZMaFMmtq6623dq4JwMUQA5QQ99K6MywtZgOI5EK4cVg5OeHyOfvHWUYFS6lgGYWUy0v5TsjqwCJibiLWVYhiOaDLf24p4RpGIlFbqWBdkXF0llW4sI+Xdft1BUj8DbA1PpSftGlCN9fXb/n5b0gxyBVbXgAV1unDDz/sXiR0vWAfGu0B+LxEaLY3ZcoUAC0orenR0z4wGwWW1cDIdYlVP/zwQ0dTeOedd1zMCQX8xje+4YiFWD98bNwT/+MNb26guXVYS1hRtFIGjFjHim9pd0zQfa+99tL8+fOdsuGuQIuwwapdWi6dYKUOoAKwcp3gUYgvRQT85PKFOJW5hFhR8LJyoQIYFayxAtgJ164jOF8AC9xNi1kVgvgGVqF8dgk3c1m3w+8e2rZLAyTjT/lBym9hYVFRKI7Vi+yQLf8HxLCi+B+UkvLy8pDfkgqsqmXdqdL/PwCrEsjUn+krJgYuWrTIowCWNi/QCwAh3DbqzJhMY5k+FISuCkZmRFnYHssIUOJNT/M3CppxCQ3MsCzgYhHzgupABot9zXqz3kymtMa9cnGxTFbxsooCeTKbdvGjaLiQ3QNgsvmQsHvSOU+xRJk7H6gKuWxaXjar5rY2RZKVynshJWIRZdPtjqoQi4SVSbcrTj8or1CTF3cTeAj4S5ls1gEf553LZjpjXMXgY9k8AyM/A934ZQTIzboqWKWfJxqwQpETf7eyJc6F6wCkSGBAA6FI2bYD3El68H9k/YMf/CDQkRLoSCmWCG5EKaRYtAbsdHpyE68CWAARFATrCEuKzN/+++/vlMisKoszoYQomYGMkULZ7qmnnnL70lbX2NSAEEpMRouf6blEEJ+iZ7hD1vLE3CkLvLNPdU2tmtvaC1yqfEYR3LZQvhDox6JyvKuoYskKfTx7ti679FI1Llqow75zsLbbegtVVteqJZ3XgkUNikbCKk8mC0CWz7nsYD6bdYDFOaTbC8XDgICRYP2jwPz8Kr842dcC4V1ZVVyHtb9hfQN/k6tNo0Y+ADrHhD/FXMapU6cyWs0dDjecY2HVkm2FfLvvvvsG+jEA+tHXJYOb0VfJ+fZj4g1uQvFS06dP9+DkULLBGxulIoDL25wPb3AUjO8oIj8DFHQANZIlRbRkBJn6iyVA/MoU1JS4g/PTWbbDFBamQ5NFxMKyVsgAH1YXx5uQRvIAACAASURBVEAxW1rbFE+WuYB4PIIriPuWU5Y+Tvmws6qyoZgUiemll1/RT358smbPeF8TVxmruqoybbDhhtps6x21217fdEAwb958dx2WgeMY7ak2xaJYWPy94C7iBOaJRXXEwxyJAcJphwCLgcvPzjeAs3o+rsWsJr9lhfwAdMAI5j9uMRQQiLcQbpE5lizr8SJBNmQEcfkuueQSI4YG+lEC/SjVEsHNKJUkJUDBWVRk/gjOEkBHMYzLQ9wKmsKMGTOcggAyNsgUno9ZAfRMevzxx/Xss8+6+kADHBTTLC3rx8QsO1LrKKaNjmc7mvatv/76LmhMixMAxEALRXbM90i0AB25nJRPS7msc+P4eyiWkBeOK50PacSokbrhhj/r1JNOUCzXplieLJ5UWylFKqo1fvW1NGLkKO208zf0rQMOVEVlteoXNwimOwCSSrW5cHp1VYUaFi10WcMyJvPgDnbUJHYVPOfW+CdQA0qurYuXVzxWaHMD2ADA/iZ5NtyVYyNXsns33HCDGKGGDKCM8LHuqbjZHJ+YIJlX1rWMXwkfj2CpfkogAKt+CrCrImXA6pe//KVjoFtNGdOZmeIMcBlQoYgoGW7JSy+95Nw7RnuRBUShePubW2OBckCQIDD9lcgQkgEkTjVt2jTnymCVAIIorCnzAQcc4Cy69dZbz1l5AJ07h/a0YomkC4ZHQjlFHUHTc8H09pynNGWD0bgDtrPP/Lnu+/vtGlcTlVqzqolJi1ulFDEiSeVlUkVNtfKRhDbadHMdeMih2nDyJorE4hpGO5uGxYrhsmbbleyIZbn4klcooO7uY7Ep/o8sAWWAhWv0M/eN9mHgjzwB+yeffNI1zMMitVYxrIM8+R3wYqoyxFy4VF1ZyP18RILdSySBAKxKIEi/G0iAnXjIscce6xSKD+BC3Io2L1hKKCDWEix2G/nEdiiOxZ5Mocw95O804aOvFZ1DWavDHQwtWLDAO//88x048qFuEBfH4llYVQAZ03J+8IMfaNNNN3UgCFi1pNo7yZkFUkG+kOUjU6iIKqpr9M5bb+n0U0/SS8+9oNFJ6aiDdtLeX99Sjzz8kJ587hW99EFOuQ7QyoBvSSlRVaeKmjqddubZ2v+AA931tre1qKo8qWgkpMZF9Y6+0Z7Nu2C7nzvlvyVGduX/yADgBJgAJf7HGoAOgERMj/mNlCGR2QOgbKyZBelxB9me88GSpf0L7YrXWWedQBdKoAsDuURwg0okXVLZKASuBsNJrV0JCmWujMVbABksJD6WzeJ/ppgAiY2Sx43BfUShABliQxbTMVcFgMTKwDKjWwMWBWuZUlvrXqwJlHvy5Mn6+te/rnXWXV8bTN7EBcejKmQEs+lUITsYiioUjWnkqDG65A8X6g/nn6NQa1obr16mEw7fT9tMWkNz53yixemwmjMhvfn+R7rtnoc1a74UrpAWtEgVtdX6v3N/qwMOOkTt9ObiactlnPWWamlyYJHtoEQYWCETK6nhO+BkH6xBrp9rgwYCJwqmOdYovyNTLFXrT8/1W8dVK0S2+N5BBx2kE044wU25tho/3PiOovBAL0qkF6VcJrgp/ZSmn6rw6aeferDRP/74YwcoKJfxdYxqgPLxdyv65f8oiJXR4OagQFT3w8WiCwOjuYiFddUvKZ9Ne6FIWOn2tOKJpD6aOUv//vd/dNsdd+jBfz6ocEcAmYxfW0ur8jkGIERVXVWpiqpapUMxbbzxZO01ZXttv/WWWnnl8YpGIkq3tzqAwQ0899zf6LqrrlbSkw7abrzOPv5QJVoXqiwWVqi8RvUpT5l4te599Bnd9fDTentWo9o86eu77qbzf/d71dYNV/2ixY5+Ub9wviqSCSXjUbU0NSoWjxUsqw6WO3EuiKRYX5FQyPXTiscTmvvZPNH/69ln/qsP3n9Ps2bO0Kdz5jpgQoYFDpgUpVVzuFDmg4x5afCzxQe/891DdcIJJ2r1iROVTJYpCuUim4d6sYQutLW2eGXlFd3qh+flvFBoyX36+SgFuy9DAgFY9fMRMQCZN2+eRxYJPhUKZG90W97cELOKTJko5QC8NtpoI1eYTGM3rAf2N8Z09/GcnCevg6fkCoojynph5byQ5i1crP/89xldcMHv9OrzzyucjCvf1qraulplUq1qa2mRCLCHyqRETLXxtGrLy7Taautp3bXX1KS1xmmDSesqWTtCF19+nf565wOqzDfr5G9tqlO/PUXRRbNVEfGUwqX1EtKINXTjP/6t3173kFQeV2NbRhdc+Hud+uNTnEvmgvZk/zxPiXhcymeVz7QrGsqprLxC9c3tUqJc2VDcgf0Hb7+m116arrfffEsfzPhIn9U3OFCK5DNaNP9Tl41samoTV02ZnqNDtOc0ZuwoRz9oT+eUiEfc9802naxvH3yIdtl1N60+cU0lyssKANnR6sp12MpJyWiBYQYQkb0kYxmJFUpr7GMg5eXTDh5D4aBGsJ8q1OPdA7Dqsai639AAq76+3qOlCOlyY6rbBGRzTYi14NrR2gXOFcCE24VFVVdX13k/cCtRwKUVzBaUCrDKOaa5p4gjcEaisY6qPmn+wka9/dZbuubKK3T/vXervbXZdasaP26U6htb1JRG3fMKZ5sVymNIVSkRiysZxk2LK5UPqzUT0uJFKa0+slwXHDtFu08aq+iCOUqE0fC40okavTIvr4tufkD/mDZXZcOHa3Fzq3NbJ627ttpaW5Qoq3AA0ZZKFcpn6IMVLsSqWlNtGl5Xp88W1Ou9jz5xLnBz/TwloxHNW7DQuaTyCmVI0ZincB5Sak7DaiqViEXV0oIVmFF7ljrEQoyQpMLmm2+uLbfY3FmmxPGiiWRnxwe2o8inUFgkMc402vFGaW5Y5FVUVhQC/66H1+cWVABWJVCYPi4RgFUfBeffbWntbIvHyxcfrpj9zv97U9GfzaQ8x18KWw2ei/ooi7tHGxV5am5sUDwa0euvvaorr7hcD0ydqoWLWpyiJqtqhFEWzrUolc4rla6QvKgUbpfiktJtGjGiTo3zFmrnSeN02U8P0rhIk2JNDYqEpXYIpXUraeoLH+rCmx7Qq59J4coqZXJ5Z+1QTpNqa4MP4ayrcCSieCymfDat9nxI+WStlG1XqGWhRlZHtLiRUL1UkZBa2guZxnhljVKcU6ZdyVCanqZqaS9sR5UhjPk11l5He+y9j7bcZjutPH6CJk9eT+3tnsoSIQfOIFIul+9sBx2J0mJGyuSlbCbr3FIY+MlkMlSwmjitdCfAdeXyBa5gCZSnF0sEYNULYXW1qR9sioGpu/oxtrOAMsrRU+Dr6vhZj2KXwhKp9pSSiYQDqHSqFUvBgUIsAeoUOhukW1NqaGjUK6+/odvvvEvX//nmjl7sUrIMftUIZRVXPpxTpnmhlE8pKanOk47dbxOddPAO8upnKZn1lGR+XmODyldaQzc9+Lx+c+2Tqg9JjdmQA6dIOKxELOziRpFYQu2ZbIHT5cAjp0iiXLlYpZRqUUU8rWg6I7oslyUlsCgUCzuuV2t7xgFLLp1TWUzKedLXttlBkzbaWNtvt63jk1XXDFNtXZ0SyZgyXqFPVmfrm46KfWxIgKtAlPD1nu+s6Keu0WwtV7dDECxw9fqpI6XaPQCrUkmyaJ1lWVS2eU+36+40s3mPDi9O9XLZnLOgoB94ubQLNNNd3Skd3Q/aswolcW8iTuHn1zfqk9lzNX/eHL3zxjQ9/8x/9di//q36xkYpGpGXT2tUTVTpRVl9bZz0i+MP1CZrjZDX0qBsa1bhSFztEDzHrKrLbn9EF976nHJlYeUT1WpppeVNxNUaOpJmOK5M3nM1gslEXLn2Nve/trZWZbO4wQm1tbQ7YKyslOY1S1G3XVrDy6V1xlVrwbxGzWkscLv2+dae+vVvL9KY8aspWZZwAsimM0omYk4WLemcQlhPuJrW6A8rjcgeiJhNOVZ9PpxwhA1qGctAyTxg6rlSoTCxNfcpcMH81lXO87xIcT+aAXqWgmU770IgilJIoCcxpuLj9BeonKVEn98lSlVQ2pTKEjF+0D/uv1fXXH2VDjjw29p+xylaadU1FIqG1d5hfWBluKhVtk2hdLsWfPypPvlktqa9+Yb+dvstmv7MCyr3pCN2HKeTj9hf0dwiVSciiuejriQnFY5oXjqsy257SLc+9oGy8ZAy0XK1tba6TF6qtdWBBZYVoARouhhbLiOiUJURyQtLi/NRVdXUalgso7amBqW9iEK5nNZduUZ7brOhNhpfq6kPPqx7X2pXNiaF4jH9328u0HEnneKAlzA3LmG6vc0BIokGOj1wnWCNWVTAD21p5BUoEblMyFl4AFRLc5OrbyS7SqF2iDKhDqgrDqQDVuwfAFYptKdnawSWVc/k1KetbEBEn3bu4U4uyI4LmMm5tH2qPad4POJaBT//3LM68rBD9f57H6hueJ2GjxyjaFm1vrHHN/WTM85w7pbXmlFNeVQKpV2QWem8qwV8+Y039ctzz9FD/7xXa4ys0MkH7q5vbj9Z6aY5Uku9qvN5xeJlylaP0H/emKE//PkevTE7q/kZaewqq2r11VbVqJHDNWp4nVZdfXWtvMrqSufyjohKfWBVMqbVVxqli887S/c9/Ly8kasoQzRqwQxVUgrjSTtuWKNvbj5RW68zTsPiOd3z2LP600OLtCgZ05zFGW2w8Sa64Ybrtd666ygBOAMs+Sy9kJ2VSYM/rL8l5u/kcUUzDiyBm3wY5Is4ygdDTLfeakuX+OjICzprystnPMDKH6MKwKqHD2gJNwvAqoTC7O1S/Z0zh/Lk0ymF4zGlM54rbSFgTOD73Xc/1Ak/PFZPPfaoairLXCsW0viKJeVFEho5bhVtt/VW+sVPfqQ1Jk5QrLy8EMthgbz09wce0IEHH6RkMqJ4ulXbTByp3bfbWLt+fQtVh9Mqa2lUqi0lb9hYPfDMy/r1Zf/UoryUScT0kzN+oeP/33GqwD3L51ReUeH4WuksHSUKAW/oE4l4SB++Ol1HHnei/jPtQ6l2uNS6UGsMi2i/LSZqt0mjtXZZo/KLPnYtaJoTI/WHqa/qrhdaFaqr0pz6Zl14wbmOHgGBlfNJlhWspEKG1JmMzt1zXzQaJBERKtRE8u933npTV115pe648+9Kllfqnnvv1Vprr+0C7vlcXjEIX75PMWAFllVvn/q+bx+AVd9lt9z39Dxy9VAX8OnM9ZHa0p7+7xdn6eLfnafRwyrUtKjFWU1l0UJwui1XcG6qqhKqKCvXqmuurTU33UKNTW2qUMz1Yp/2+kt6afr/VFERU7Y5rZUqpIQnjR0b1+47bqUDd9rWkTsbciFd/pc7dNuDr6nRk2rHraSrrrtBU3bcXslkvNB+JhwLYYlYp/WCS1YIZuPF3n7XPTrxx6dp4eJGwW9YvTak0/aepF0mxlXT8I7C7Y1qUZmiI1fXjOa4fnfLE/rPLKktFlVVeVzXXHed9trv22rPh12MKpuXkhRkKy1l2wqFQCQbWtsVrhqpdkV1zS336Mbrr9Oct6Yr1bTIFWy3pTL6xTnn6vSfn+HmIba351QWJ+625PSJIAu4fB79AKyWj9xLclTAKt/WpLDrI0UoPea8uF+cdaau/NMfVJsMq72xXUfst6122X4rR7Kkzcwz/3tXbRlpMXFvPD9YAdU1amz1VBmrUL69TV6+UbFQXhusOUJbbLS+Hpn6lBY3S5U1EpVCG64sHXrIwQqVlevav96hae83u8D3oUcdrUsvv0IViahy6ZQiMYLc8S+CFZZPxwiwVDqrs844TZdcerkStaOVmz9LR21Rq5P33FCj22eqNpZXk5dUfXtEXuVIPftRsy6a+qreraeVjbTLHrvpsqtvUGXtcCXL4p3xqUiuXaF8SkqnpGRCCkV18y136sLLrtX7sxeo7bM5KvdaVFseUlsurEwoptHjV9dNt96mTTad5GJ5fMG/cu42Qu6w0ELRgAxakoe4F4sEYNULYQ3FTb28CyE7RQR6rrn2Op1w7NGqCEvRnLTH5mN0/OEHaPUxtY5oWVVRruaWVr38+pv697Mv6l/Pt4oqRZqmZMNSRXKY2lsXaURUmjhK+sG3d9QOW2yimTNm6693TdXD01oVKSsoMfysiuqEZsxtV6QmqbmLU/r1by/UqaeeqkieDp1s5S0FrDwXdI/ShSGX1mGHf1+33DZVlRURVTU16pTdR+vgrSZIiz7GHVOsrFKZcJlStWvo8ic+0t+eelOzaf0QS+q000/Xueec7QaeZjPtKkvE1dzUqMqqKleKdN/99+vyy6/QC9Onuw6ptGKuTYQUaWxzVifh9kRNXHMb0jrzV7/RmWf/XOQDEpGOa+2wBB21wWUMoktkB4fis/FlO6cArFbwO0rwN9XSomiizLXnPerIw1UV85RvbNe60A1++B1tud4EpRbOVjKMonkKR+Mutd+aj2hxe0iftob0939P160PvOz08Fu7TdFR+2+rstTHGlfWprqyqJKJan1S36KmWLmmPjFNt93znGY3FUibxLBz8aTysQpdc8NN2mvPPZQMFxjqSwervCtpoX6R83rjjbf1gx/9VC89+7RGqUXlbdIZB4zVHputqXi2ybXNafESioybpEc/yusPtz2ixV6ZWjI5pVsadf3Vl+v73z9C+faUoyOEYwmdc97v9MCDD+mDD95XY/18JZTVsLKQ2po8lUnaYg1py80308wFrXrg32+qNRrVsJUm6orrbtK2227hDClX0hMOuUB75+NSRGVYwR+jFeL0A7BaIW5T9yeZSqU8SnjoJLr/vt9UBYyFlqw2GCWddvS3tMMG4xVtXaBoptnFYVRVp4YFixWrHqGMR4FvWuGKWv3v3Zm6+Pp79Npsab/dd9QZxx+ocMMHGhNtUHv9HCWjZYrXDteiVFoNXqUy5avp0j/fozv+9V/lyxKa39SuHXfZU1defbVWHb+SkhEC9YVYUdduIDBHFCviAt/zFjVr2LBKPf7Ykzr82/srnm1RqKFdaySl0743SeuOKUyXboyN0NV3P6EHX2qXV5PQ7IZ2eZGI6ioTGlaZ1K033ajNdtxJD019UD8981eas7BBC+sXS5k2jaqKKdHWrkhW2nOTuLbZaG2NqE5qzMqrqFGVOufSm/TiLKlJ0i/PO08n/vhnKkswqqwAVg56ASwXqw/cwMFWnQCsBlviJTxeJpvzwpGwXnnlNe37zb01b/ZMVUWlsox0yuHb6uj9pije9IliqUVSLuWwoTkXlcqHqT1apbQX1bCaajW1pfTuJ7N1zS336pGXm7XFhqvr5yd+W+Or0kq2EDPylG7LKBxPqD7VpvjIifrP2626EHCbuUBtoZAykaQuuuRSHXPsUY4lP6yS4HqBYBkKJ1zMqoO7XnAh4To5sAopQyjIhj20teuqy/6os8/6uaoiOVWkpXXGSKcfs4+y7Sldf8dDeu59qaZCysekmjFjNevTz1wZTX2jtM/eX1c+HNeDjz2l1nROqXRGY4bXqmXhIkeJ2GPjck3ZeKLWHJnQ6KqYKwdq8yJarGrd9/Rr+vu/5+qzdmnUxAm654FHtNbaa7o7Zlk/L5ehP3PgApbwOe7pUgFY9VRSQ2w7aA+ZbE7vffiRDj/8cL0y/QWNqEpKLW367p6b6ft7b6/xlTnlF36kuiSti7MKDxulxtawWuO1uub2B/TKu7O06ebbaIvNN9U6E8fo1r/dqetuflq1VdLxR+yu3bZeW2qYqbpyeql7jidVPrxWn2UqdOaVD+uep99WeVWFmjM5Z1X94U+XafUJYwpBaYAok5KidFtIhLJF2UDHIneAVaAUpNIhxRIxF8yGYHv6z89yAyoS0Qg1Qlp93HAp1aCF8zKqkLT1RGm3nTdX3dgJ+us9/9Rjr7a4mFuuIqGmdNh1Oq0qi8trbtTwqHTAThO11VqjNbE2rJWrI8o0fKqySM7FpGbXNys8cg2la1fTj86/WS/OLlhXp519lk459WeqrKyiZc0XdCVgsQ+uUgRgNbjyLtnRcP/aMzkdffyPdOffbtWE4ZVa/OkCbbFmpc4/40SNTGSVTC9SbSStULrZ9YZqaPcUGraKXprVoN9cdZtenNGmuuFlSre1ac3x1a5wd9aclFrS0r7br66fn3KUkvkmp9BUzCgc0xvvva3fXnmnXp4rpWLVyuYzqqwdpt9dfKm+/e391NjUrprKhGLwH5wbSKXKF7OBWCouOcAorkhMXj6kcCze+TwuaGjxDj38e/rX1H+qcnidmufPUU00q43HV2mvzdfUdmvUqi6RUzxZrufe+EB/ffRdvTRbaiuTFrVJlfA02rLaYb0qHTxlM61dF1VVvkFV4XaF2psUD+cVzrcr196i8rrRem9BRonxk3TTQ9P0j2fn6uMmadjKY/TPR5/QqDErq7amyp1bJpPzYh29rzLZvBeLupqm4DMIEggEPQhCHohDAFY/P/tX+sOlV6s6EVJ08UJNHi2dcew+mrzWKmppatDIYVXy2puVYLxWFhCiQ8IE3f74SzrrqieUTlKSwtivtBJRhjOQ4Uso1dru4lsrj61RxMs4Qmk2k3dlKLl8XgsbCc5LiYpaLW5YrIsvuUTfO+polZWXO6JlLBIKWSlRXzlJbe05D0tun3321VOPPqiRFWHFW7L68WFbafdN11Dus3c0IpFVJNemVLRCj761SFfd+4HmtDtMVSIjHbrHatpt8niNjLSoOpRSKNvm+svjxjFqTABtLKfWVFqpeJ3yteP1xmdp/fGWJ/RKh3V19m9+pVN+dpbCTNKgUqA1C/cs0JuBeKiXsWYg9OUg9L4eEtePnu30yDrvvPP0x0svV0tbRkmvVVuOk079zm7aZbM1lWtZ5DJ+6QxAQ6sYyUu3qXzYaH24OK9fX3OX7n+5Xu0J2sHkC5NuwmHXU4u+WzaTkHbIrllexxQZztu6mlKcTB3vtddeq1122UXjxo0r6bOUyXleJufplZdf0YnHfl/vvPSSxialdeqkYw/YUhusVC2vcY5qYlktaEyptWqCnnh5hq6+b5YmjpFO+t4uGluWVZ23SMlMo8K59sL8wTCzEAtBfVzQTFuLKmqHa25jRg1QYketob/+6xlN/c8naolK0dpRuvsfD2vDjTdyAzQAdTxc3MJ0KuXFi7pm9PXeBvstWwIlfcCWfbhgi75IoLgs5+abb/aYC9ja0qJ4WFq5Wjr9sN2179ZrqyZbr0i6SW2pdld6AmM9FIm5wRAVo1bV3U+/rtMveVjzk0m1pELaepvNNWHlca5hIB06GRPGB4BCuQEuhivwoamdDWCgqylTdbbddtvO/lvFLXF6U6hN4NqfYfMH5O+/536dcdJxSs2bq0g7mbyE9t3pa1p1eLnSDZ9pWHWVvHi56hc3ubFktZXlmjB2uNoaFjhiK+4ovCqANhyieV9WkXy7vFBMmUi1srFqtSqhVLxWybET9cTL7+mGux7Sqx+3KBsL68I/XaFjjzu2s3tDKp1SRTyhTCal8vgX50X25R4H+yxbAgFYLVtGQ2IL3D7Ag8k5TFzGsqmI5JVsz+r7+22mk767p6KNs6WGTxwFINPUrFhVtTJQg+IVasmGNS8V0R9ueUB3PD1HmZpham5K6//OOUs//tHx7hrhMTF84fXXX3cDGLDgsOTobMrwBX5fbbXV3LRnput0TDHudPmKBdWb2keXZXPxrYKLZWDVnPJUmQzp6j9dqv/76Y+UTEtU/x00ZSXtt/MWqskuUmbxZ64OkbYz5YmIm6DTsLjenW8oElc+FFFGUVebSCeGKB1YI1IunNDibEKzFrRoUSqn1z6YrTc+nq9PFmc0t1nKxhNqaM9rwppr65a//k2TN9xAec9zg2CjIcaXkRVkgFnwGQwJBIIeDCn38xiNjY0eU5pvv/12HXnkkY5vxKdGGe2+XoXOOPpArVxXrnCqQWUhWv6mFKmsVvPiJmUjZfKSNcqX1enJF9/R+Vffo09apcZQmaqGj9HvLzhPh37nYDdQwaa8YCExKWbUqFHu+QAoAUcm8QzU8E8vW+jOSdc8qyXkKlM5uWnR9Qsade5ZP9Nfrr7agdWqddLR3/ya9ptUp+xn76u8LKlcLlsY1RWLO4uStjSp9oy8cEzZcNz12fLKhmlhKqSX35upV979UO9/XK/5jRJHpxYgQ02gJy1skqqH16o947k1rrv2Oh1+6CEF9rqXl9fSpFBFuULRz5MC/bzNwe7LkEAAVkP8ETHr5JprrvGYcYf1Q992YkuTx1frypO/pdWrcmpuqFd5PMLQA7U2NxQm66TzykbLlY7VqCVWqz/f84iu//tzaotKzfmIDj70CF15+WWqKC9M4VnagE8Ai77y1nK5O6upL329uAVGtnS8rEg8RFPBHN1BOxq8gBEL5y7QUd89QM//+yn3j21WlU6Yso62nlin1vrP3DAJpj43tbUrF61w2c+yurFqy8f08fwGTX9rhqa9M0czF0gL03ITeEIxqbGtEMKKJaTG1sIxy6vKVTNsuNZfb5LGjR2nr++wo/bcbTfV1dV2dJxhviJVTgFYDZYKBWA1WJLu53F++tOfehdeeKEbBT9r1ixHgvzurlvonEO2VkXqM1XVDlOqrVVhL+dAq625wSkbCpuK1erFj+p10fW36/VZLWrISCtNWEWXX3m1dt999xBAVNxemdPFoquurv7CM9KbWFR/LjvjeTQ3df36+BASf/XFl3XU4d/R7I/el9eS0RE7rKR9t1pbE8rSqsw1yGtZqFwoqvioNfTGZyn944UP9M78lN6d3aCFuHZ0iyHrGaMffFQNzSlRmjhy9GhtOHljTVhtonbceYo22fRrLrsJXX3E8Dq1tLaq0mU7PcdZg3WFWx6OLjn9pj/XG+y7dAkEYLUCPCFYMbg3b7zxhhsZz2BPZvBp8TxtP1465tu7aoONNnETj6nJq4zmFUo1OHclrZiyFaN16yMv6Lzrn1K0JqH6trym2iuSvQAACMxJREFU7LKbK+71tz8ZLBBalsiN7mBtZeC5p+F5eW7Kl/58w4069aQTFG5vVSQjHbnrmtrra2toTDKjqnBGs+bM011PvKUn3pAWxaSGkJSNltEn2U3OyeSyqh02XBPGr6KDDthfB+5/gCoqK1VWUaGq6mrF4uFQqj3rJRNRx7zPMpIrEu7ogGXlgYXvkWB24LJuZ8n+H4BVyUQ5OAth7VxwwQViRmE816bhkbxiWWny5JV14jHf09jKkEKNc1QXalLMSyuarNRHizK65PbHdPt/5///9u4+tKoyjgP499yXs9276cZGW/OPdE4s6YXSCNGgTIpepYzhS0QFQk4xCcSlqwhzvf5RIoJEmJpN/CNUyoFFIFEUUiyhMLUUyjC2Ivd67j335cTvOTvreru2ms+ze2dfQRhs93fO/Zxzv5zz3Oc8P2ByDJlYLdY8vQ4bW9eqpYWLuYBcoRU38+dmyZyrqB1CMplSyzXLksnPbdyAt7dvQ6Uso9yfxiOLZuOGmY049MFBnDmbxu8JYFBmGZRFVIt6183CjgLz5t+K5uWPYv7Ce1BX14Caysi/fv+yr2rIavhQy4cnaN81Pkf//70VhtUEOP6O43jB4Hewu4cPH/banlmPb7uOqfXHZcL4tHobK5rvxl1zZqCpysNAz1lMrq5B52ddeOGto+gB8EsSmHXzPOzasxdN069CZbS4H7ggAOREzA3N/MAKHtiWHoQyHjfY14eWlpXo2LsPFeVAXXUFsukUBoZcmbiObDSOQcdFWbwCix+8H48vfRizb7weVdU1iMQmIRXyeyvKraVsO/gg5IdPsGx0frOIoAlFMYN+Apy6WneRYaWV00yx3PlLueu6nzr1g/fqa6+js7MTfb3n4Tn9qMgAc5qiaGm+E/NvmqW+Gdt78CO07/oasdoIfurN4rGVT2Hr1jf82eZF7tAShJXI5QdWvqYMwsujQXZMFnexcPL4caxesxpHjnyK8rIQhpwsIuURuBkLjVdfh9Vr1mLRA/fhiupJqI5JLGWQdZNq3pkXjqmB9ODh6iCwchfbK9grMOM3igj+WQWeGTRzFrAqw2qCnAMybjXcufmCYyYPCO8/eAgvvfwKjn31JWpjIVSFXdhDwEP3XosFt9+G9z/8GPs/OQUnBFQ1NGDLtu1YeMcCmSdVEsc/uBX0x4D+/sBw2hnwwnaZ9BpTLcIkqLrP/Yq6KQ04+sXnaFm1Cl3ffIeyuI3FzUvxxIon0TTzGlxZV6MCcKRXYDYFNStKbULaVljIqJ44flDK342sCqrWcR9e15At4kviU1ISJ2tJSJToThRqlFpo2sBgwvU6OjrwfNsG/NF9DvEQIEtKTZlShdM/98KOh9HvZLBk2VLs3vOuv+JBSvoI+g/olsK/i3WM8dyEJIdaweGvmzYLrjMIOxbBezt24PiJk1iybDmmNjYiHLFRUTlJNVWVJhr540wSSlY2hZBMXYjYlpdztZR7paSmUygd+Q7Q/y8BF7SeD9qY8VZwfM6ekjlRx+ftTsytSGDJVIX8cSt5N17G9WRekvzc7yS97u4ebNnyJjp278SA9N9LplBVPRkZL4S+3l5s3rwJba3rgUwSiNqwwhd2hC620MUCK51wvEh5zMq4rr+eVDiMwYEBVMZtZBIJnO8fQq18Q2p5SCccRNRDfOrGElkvDCdrqQEqubKS3/hL1Phzurx0cAkl863ym0PIZAc1+2skqPyf/SsxtU57kW+li33Mxmv7DKvxkh7jdnLHqC42ETObSnqhqD/fR24L5dMl4zjPtrWhq6sL4UgEzlACt8ydi53v7MCM6Y2qrXyhuVVj3M0xvyxYKjj3MZvcb9sKBUEylfWkY1i5bakGyrJahIw9qaX8ZMa7LN+clK7S0upGHjeKq1nsaoxK5nKmU7BD0i1DQi+m1toKPgj52ys0wD7mN8sXXpIAw+qS+Ir/4pEmpwlpfx63Em5a1ltStyrnewdw4MABtLe348yPp7GutRWbX9ykJpSWRUNwnCQq48W9ssoPKxHNHXRXd385rbCC30lXG1njXa5u5Gf5QRo8yKM5SEqziqxqZKq6WqhmGrZaL15eI4GUzSQ8S7oul1Vabk5YjQy082qp+Cd33h4wrErukOjfoe9PnPR6en5DfX09pk2bCjvqP3wryyLnN/HUv/XxqVhwvtZwJ+XR9oArfo4mVBq/Z1iVxnEwvhelMjvd+BvlBi5bAYbVZXtoR39j/2UJl9Gr8S8oYFaAYWXWt6SqF5oGUVI7yJ2hwD8IMKx4elCAAhNCgGE1IQ6T3p2UKyz5ssu2uRaTXllWMynAsDKpy9oUoIA2AYaVNkoWogAFTAowrEzqsjYFKKBNgGGljZKFKEABkwIMK5O6rE0BCmgTYFhpo2QhClDApADDyqQua1OAAtoEGFbaKFmIAhQwKcCwMqnL2hSggDYBhpU2ShaiAAVMCjCsTOqyNgUooE2AYaWNkoUoQAGTAgwrk7qsTQEKaBNgWGmjZCEKUMCkAMPKpC5rU4AC2gQYVtooWYgCFDApwLAyqcvaFKCANgGGlTZKFqIABUwKMKxM6rI2BSigTYBhpY2ShShAAZMCDCuTuqxNAQpoE2BYaaNkIQpQwKQAw8qkLmtTgALaBBhW2ihZiAIUMCnAsDKpy9oUoIA2AYaVNkoWogAFTAowrEzqsjYFKKBNgGGljZKFKEABkwIMK5O6rE0BCmgTYFhpo2QhClDApADDyqQua1OAAtoEGFbaKFmIAhQwKcCwMqnL2hSggDYBhpU2ShaiAAVMCjCsTOqyNgUooE2AYaWNkoUoQAGTAgwrk7qsTQEKaBNgWGmjZCEKUMCkAMPKpC5rU4AC2gQYVtooWYgCFDApwLAyqcvaFKCANgGGlTZKFqIABUwKMKxM6rI2BSigTYBhpY2ShShAAZMCDCuTuqxNAQpoE2BYaaNkIQpQwKQAw8qkLmtTgALaBBhW2ihZiAIUMCnAsDKpy9oUoIA2AYaVNkoWogAFTAr8CS1Pvh5OKGT0AAAAAElFTkSuQmCC;container=0;" parent="Pp3IulloARQS01nqF-D--4" vertex="1">
          <mxGeometry width="323.07" height="510" as="geometry" />
        </mxCell>
        <mxCell id="IjgYTrY8oQ0kEiCpzaL8-30" value="G u r t" style="rounded=1;whiteSpace=wrap;html=1;fontSize=53;fontFamily=Lucida Console;fillColor=default;gradientColor=#FFFFFF;strokeColor=#d79b00;fontColor=#66B2FF;fontStyle=3;horizontal=1;container=0;" parent="Pp3IulloARQS01nqF-D--4" vertex="1">
          <mxGeometry x="20" y="460" width="290" height="60" as="geometry" />
        </mxCell>
        <mxCell id="IjgYTrY8oQ0kEiCpzaL8-4" value="" style="shape=tape;whiteSpace=wrap;html=1;rotation=35;fillColor=#ffe6cc;strokeColor=#d79b00;container=0;" parent="Pp3IulloARQS01nqF-D--4" vertex="1">
          <mxGeometry x="101.91000000000003" y="350" width="128.09" height="34.48" as="geometry" />
        </mxCell>
        <mxCell id="IjgYTrY8oQ0kEiCpzaL8-5" value="Gurt" style="text;strokeColor=none;fillColor=none;align=center;verticalAlign=middle;whiteSpace=wrap;rounded=0;rotation=15;fontSize=21;labelBorderColor=none;labelBackgroundColor=none;strokeWidth=0;glass=0;shadow=0;fontColor=#66B2FF;html=1;fontFamily=Lucida Console;container=0;" parent="Pp3IulloARQS01nqF-D--4" vertex="1">
          <mxGeometry x="130.95999999999998" y="358.73" width="70" height="17.01" as="geometry" />
        </mxCell>
        <mxCell id="IjgYTrY8oQ0kEiCpzaL8-10" value="" style="verticalLabelPosition=bottom;verticalAlign=top;html=1;shape=mxgraph.basic.cone2;dx=0.5;dy=0.9;rotation=15;fillColor=#ffe6cc;strokeColor=#000000;strokeWidth=3;container=0;" parent="Pp3IulloARQS01nqF-D--4" vertex="1">
          <mxGeometry x="160" y="80" width="70" height="100" as="geometry" />
        </mxCell>
        <mxCell id="IjgYTrY8oQ0kEiCpzaL8-9" value="" style="shape=mxgraph.arrows2.wedgeArrowDashed2;html=1;bendable=0;startWidth=31.724137931034484;stepSize=15;rounded=0;exitX=0;exitY=0.5;exitDx=0;exitDy=0;entryX=0.961;entryY=0.504;entryDx=0;entryDy=0;entryPerimeter=0;strokeWidth=2;strokeColor=#66B2FF;shadow=0;" parent="Pp3IulloARQS01nqF-D--4" edge="1">
          <mxGeometry width="100" height="100" relative="1" as="geometry">
            <mxPoint x="182.4490477448739" y="171.0662913144535" as="sourcePoint" />
            <mxPoint x="207.5533801775356" y="80.00293597889856" as="targetPoint" />
            <Array as="points">
              <mxPoint x="182.45" y="144.47000000000003" />
            </Array>
          </mxGeometry>
        </mxCell>
        <mxCell id="IjgYTrY8oQ0kEiCpzaL8-11" value="" style="shape=datastore;whiteSpace=wrap;html=1;fillColor=#d5e8d4;strokeColor=#000000;gradientColor=#97d077;container=0;" parent="Pp3IulloARQS01nqF-D--4" vertex="1">
          <mxGeometry x="225" y="321.27" width="45" height="38.73" as="geometry" />
        </mxCell>
        <mxCell id="IjgYTrY8oQ0kEiCpzaL8-18" value="" style="shape=tape;whiteSpace=wrap;html=1;fillColor=#e6d0de;strokeColor=#996185;gradientColor=#d5739d;container=0;" parent="Pp3IulloARQS01nqF-D--4" vertex="1">
          <mxGeometry x="225" y="338.73" width="45" height="20" as="geometry" />
        </mxCell>
        <mxCell id="IjgYTrY8oQ0kEiCpzaL8-19" value="" style="ellipse;whiteSpace=wrap;html=1;fillColor=#FFE4CF;container=0;" parent="Pp3IulloARQS01nqF-D--4" vertex="1">
          <mxGeometry x="225" y="321.27" width="45" height="8.73" as="geometry" />
        </mxCell>
        <mxCell id="IjgYTrY8oQ0kEiCpzaL8-21" value="" style="shape=xor;whiteSpace=wrap;html=1;rotation=-60;fillColor=#422602;strokeColor=none;container=0;" parent="Pp3IulloARQS01nqF-D--4" vertex="1">
          <mxGeometry x="262.5" y="316.27" width="7.5" height="10" as="geometry" />
        </mxCell>
        <mxCell id="IjgYTrY8oQ0kEiCpzaL8-20" value="" style="shape=xor;whiteSpace=wrap;html=1;rotation=-75;fillColor=#422602;strokeColor=none;container=0;" parent="Pp3IulloARQS01nqF-D--4" vertex="1">
          <mxGeometry x="245" y="311.27" width="10" height="20" as="geometry" />
        </mxCell>
        <mxCell id="IjgYTrY8oQ0kEiCpzaL8-22" value="" style="shape=xor;whiteSpace=wrap;html=1;rotation=-90;fillColor=#422602;strokeColor=none;container=0;" parent="Pp3IulloARQS01nqF-D--4" vertex="1">
          <mxGeometry x="230" y="320" width="7.5" height="10" as="geometry" />
        </mxCell>
        <mxCell id="IjgYTrY8oQ0kEiCpzaL8-12" value="" style="ellipse;shape=doubleEllipse;whiteSpace=wrap;html=1;fillColor=#f5f5f5;fontColor=#333333;strokeColor=#000000;rotation=15;container=0;" parent="Pp3IulloARQS01nqF-D--4" vertex="1">
          <mxGeometry x="156" y="393" width="33.33333333333333" height="12.760000000000005" as="geometry" />
        </mxCell>
        <mxCell id="IjgYTrY8oQ0kEiCpzaL8-13" value="" style="shape=singleArrow;direction=west;whiteSpace=wrap;html=1;fillColor=#f5f5f5;fontColor=#333333;strokeColor=#000000;rotation=15;container=0;" parent="Pp3IulloARQS01nqF-D--4" vertex="1">
          <mxGeometry x="91" y="380" width="66.66666666666666" height="12.760000000000005" as="geometry" />
        </mxCell>
        <mxCell id="IjgYTrY8oQ0kEiCpzaL8-16" value="" style="triangle;whiteSpace=wrap;html=1;rotation=-195;strokeColor=none;container=0;" parent="Pp3IulloARQS01nqF-D--4" vertex="1">
          <mxGeometry x="89.42000000000002" y="369.6" width="20" height="18.76" as="geometry" />
        </mxCell>
        <mxCell id="IjgYTrY8oQ0kEiCpzaL8-17" value="" style="shape=tape;whiteSpace=wrap;html=1;fillColor=#000000;container=0;" parent="Pp3IulloARQS01nqF-D--4" vertex="1">
          <mxGeometry x="91" y="384" width="20" height="4.36" as="geometry" />
        </mxCell>
        <mxCell id="Pp3IulloARQS01nqF-D--3" value="©" style="text;html=1;align=center;verticalAlign=middle;resizable=0;points=[];autosize=1;strokeColor=none;fillColor=none;fontColor=#66B2FF;container=0;" parent="Pp3IulloARQS01nqF-D--4" vertex="1">
          <mxGeometry x="280" y="460" width="30" height="30" as="geometry" />
        </mxCell>
      </root>
    </mxGraphModel>
  </diagram>
</mxfile>
